<svg width="80" height="26" viewBox="0 0 80 26" fill="none" xmlns="http://www.w3.org/2000/svg">
<path d="M10.198 5.936C10.198 6.56667 10.2273 7.18267 10.286 7.784C10.3593 8.37067 10.4693 9.19933 10.616 10.27C10.8947 12.074 11.034 13.5113 11.034 14.582C11.034 14.802 10.99 14.934 10.902 14.978C10.814 15.022 10.7113 15.044 10.594 15.044C10.4767 15.044 10.396 15.044 10.352 15.044C10.1467 15.044 9.98533 15.022 9.868 14.978C9.75067 14.9193 9.65533 14.7873 9.582 14.582L9.12 8.598C9.076 7.99667 9.01733 6.78667 8.944 4.968C8.31333 5.70133 7.69 6.25867 7.074 6.64C6.458 7.00667 5.82733 7.19 5.182 7.19C4.258 7.19 3.334 6.53733 2.41 5.232C2.454 5.452 2.476 5.74533 2.476 6.112C2.476 6.47867 2.476 6.69133 2.476 6.75L2.454 13.944C2.454 14.0907 2.37333 14.208 2.212 14.296C2.06533 14.3693 1.91133 14.406 1.75 14.406C1.54467 14.406 1.398 14.3327 1.31 14.186C1.23667 14.0247 1.178 13.812 1.134 13.548V10.468C1.134 9.99867 1.14867 9.47067 1.178 8.884C1.20733 8.29733 1.22933 7.88667 1.244 7.652C1.31733 6.62533 1.354 5.694 1.354 4.858C1.354 4.60867 1.31 4.374 1.222 4.154C1.134 3.91933 1.002 3.66267 0.826 3.384C0.65 3.10533 0.518 2.86333 0.43 2.658C0.356667 2.45267 0.32 2.23267 0.32 1.998C0.32 1.71933 0.459333 1.58 0.738 1.58C1.178 1.58 1.53733 1.74133 1.816 2.064C2.09467 2.372 2.39533 2.84133 2.718 3.472C2.99667 3.98533 3.23867 4.38867 3.444 4.682C3.64933 4.97533 3.91333 5.232 4.236 5.452C4.55867 5.65733 4.94733 5.76 5.402 5.76C6.062 5.78933 6.60467 5.66467 7.03 5.386C7.45533 5.09267 7.778 4.74067 7.998 4.33C8.218 3.91933 8.43067 3.42067 8.636 2.834C8.812 2.35 8.966 2.01267 9.098 1.822C9.23 1.61667 9.39133 1.536 9.582 1.58C10.022 1.55067 10.242 1.954 10.242 2.79C10.242 3.494 10.2347 4.01467 10.22 4.352L10.198 5.936ZM23.3633 14.89C23.0993 14.89 22.8866 14.78 22.7253 14.56C22.5786 14.3253 22.4466 13.9733 22.3293 13.504C22.2119 13.02 22.0286 12.184 21.7793 10.996C21.5299 11.9787 21.0606 12.7633 20.3713 13.35C19.6819 13.922 18.8386 14.208 17.8413 14.208C16.9319 14.208 16.1619 13.8927 15.5313 13.262C14.9153 12.6167 14.4533 11.7733 14.1453 10.732C13.8373 9.676 13.6833 8.53933 13.6833 7.322C13.6833 6.76467 13.7346 6.288 13.8373 5.892C13.9546 5.48133 14.0939 5.17333 14.2553 4.968C14.4313 4.76267 14.5999 4.66733 14.7613 4.682C14.9373 4.682 15.0253 4.79933 15.0253 5.034C15.0253 5.22467 14.9739 5.52533 14.8713 5.936C14.7686 6.39067 14.7173 6.91133 14.7173 7.498C14.7173 8.378 14.8419 9.236 15.0913 10.072C15.3553 10.908 15.7366 11.5973 16.2353 12.14C16.7486 12.668 17.3499 12.932 18.0393 12.932C18.6113 12.932 19.1319 12.7633 19.6013 12.426C20.0706 12.0887 20.4373 11.6633 20.7013 11.15C20.9799 10.6367 21.1193 10.1307 21.1193 9.632V6.134C21.2806 5.826 21.5006 5.672 21.7793 5.672C22.0286 5.672 22.1973 5.88467 22.2853 6.31C22.3733 6.73533 22.4173 7.33667 22.4173 8.114C22.4173 8.774 22.4099 9.28 22.3953 9.632C22.4833 10.116 22.6153 10.6073 22.7913 11.106C22.9819 11.6047 23.2166 12.1693 23.4953 12.8C23.8326 13.5773 24.0013 14.054 24.0013 14.23C24.0013 14.67 23.7886 14.89 23.3633 14.89ZM27.8587 15.088C27.6533 15.1467 27.536 15.176 27.5067 15.176C27.3893 15.176 27.2647 15.1173 27.1327 15C26.6487 14.2813 26.2967 13.0273 26.0767 11.238C25.8713 9.44867 25.7687 7.90867 25.7687 6.618C25.7687 6.41267 25.9153 6.31 26.2087 6.31C26.6487 6.31 26.8687 6.552 26.8687 7.036C26.8687 7.168 26.8613 7.278 26.8467 7.366C26.9787 7.058 27.228 6.74267 27.5947 6.42C27.9613 6.09733 28.3867 5.826 28.8707 5.606C29.3547 5.386 29.846 5.276 30.3447 5.276C31.914 5.276 33.058 5.97267 33.7767 7.366C34.4953 8.74467 34.8547 10.4607 34.8547 12.514C34.8547 13.218 34.7813 13.7827 34.6347 14.208C34.488 14.6187 34.29 14.824 34.0407 14.824C33.7767 14.824 33.6447 14.7433 33.6447 14.582C33.7473 13.8047 33.7987 13.042 33.7987 12.294C33.7987 10.402 33.4687 8.972 32.8087 8.004C32.1487 7.02133 31.276 6.53 30.1907 6.53C29.6627 6.53 29.1493 6.662 28.6507 6.926C28.1667 7.19 27.7707 7.55667 27.4627 8.026C27.1693 8.49533 27.0227 9.03067 27.0227 9.632C27.0227 10.3067 27.0593 10.8933 27.1327 11.392C27.206 11.8907 27.3233 12.492 27.4847 13.196C27.6607 13.8853 27.7853 14.516 27.8587 15.088ZM40.3143 25.736C39.0823 25.736 38.0483 25.384 37.2123 24.68C36.3909 23.9907 35.8996 22.8247 35.7383 21.182C35.7236 20.9327 35.7603 20.742 35.8483 20.61C35.9509 20.478 36.0829 20.412 36.2443 20.412C36.4203 20.412 36.5743 20.478 36.7063 20.61C36.8383 20.7567 36.8969 20.9473 36.8823 21.182C36.8823 22.15 37.2123 22.9127 37.8723 23.47C38.5469 24.042 39.4049 24.328 40.4463 24.328C41.0476 24.328 41.5756 24.108 42.0303 23.668C42.4996 23.228 42.8589 22.612 43.1083 21.82C43.3576 21.0427 43.4823 20.148 43.4823 19.136C43.4823 17.3613 43.5043 15.638 43.5483 13.966L43.5703 12.844C42.9983 13.4453 42.4776 13.8853 42.0083 14.164C41.5536 14.4427 41.0036 14.582 40.3583 14.582C39.2289 14.582 38.3929 14.2813 37.8503 13.68C37.3223 13.064 37.0583 12.1253 37.0583 10.864C37.0583 10.1453 37.2489 9.39733 37.6303 8.62C38.0263 7.828 38.5616 7.168 39.2363 6.64C39.9256 6.112 40.7029 5.848 41.5683 5.848C41.8616 5.848 42.1329 5.87733 42.3823 5.936C43.3209 6.14133 43.9516 7.014 44.2743 8.554C44.5969 10.094 44.7583 12.0887 44.7583 14.538C44.7583 15.2127 44.7436 16.1073 44.7143 17.222L44.6923 19.312C44.6923 20.148 44.5603 21.0573 44.2963 22.04C44.0323 23.0373 43.5703 23.9027 42.9103 24.636C42.2503 25.3693 41.3849 25.736 40.3143 25.736ZM40.0283 13.13C41.1136 13.13 41.9349 12.8733 42.4923 12.36C43.0496 11.832 43.3283 11.062 43.3283 10.05C43.3283 9.918 43.3136 9.69067 43.2843 9.368C43.2109 8.69333 43.0349 8.16533 42.7563 7.784C42.4923 7.388 42.0743 7.19 41.5023 7.19C40.9009 7.19 40.3509 7.40267 39.8523 7.828C39.3536 8.25333 38.9649 8.78133 38.6863 9.412C38.4076 10.028 38.2683 10.6073 38.2683 11.15C38.2683 11.6927 38.4296 12.162 38.7523 12.558C39.0749 12.9393 39.5003 13.13 40.0283 13.13ZM56.9066 15.044C55.4399 15.044 54.3326 14.7947 53.5846 14.296C52.8366 13.7827 52.4626 12.8587 52.4626 11.524C52.7559 4.19067 53.2252 0.692666 53.8706 1.03C54.1932 1.04467 54.3546 1.54333 54.3546 2.526C54.3546 3.12733 54.2519 4.396 54.0466 6.332C53.7826 8.56133 53.6506 10.1967 53.6506 11.238L53.6726 11.876C53.6726 12.1987 53.7679 12.5213 53.9586 12.844C54.1639 13.1667 54.4206 13.3427 54.7286 13.372L59.0406 13.746C59.2019 13.7607 59.2826 13.9147 59.2826 14.208C59.2826 14.472 59.2166 14.6553 59.0846 14.758C58.9672 14.8607 58.7546 14.9413 58.4466 15L56.9066 15.044ZM64.7192 15.022C63.8538 15.022 63.0692 14.8313 62.3652 14.45C61.6758 14.054 61.1332 13.5113 60.7372 12.822C60.3558 12.118 60.1652 11.3187 60.1652 10.424C60.1652 8.95733 60.7005 7.86467 61.7712 7.146C62.8565 6.42733 64.1838 6.068 65.7532 6.068C66.4718 6.068 67.1392 6.244 67.7552 6.596C68.3858 6.948 68.8918 7.454 69.2732 8.114C69.6545 8.774 69.8452 9.53667 69.8452 10.402C69.8452 11.3407 69.6032 12.162 69.1192 12.866C68.6352 13.5553 67.9972 14.0907 67.2052 14.472C66.4278 14.8387 65.5992 15.022 64.7192 15.022ZM64.4772 13.768C65.8412 13.768 66.8752 13.46 67.5792 12.844C68.2832 12.228 68.6352 11.326 68.6352 10.138C68.6352 9.33133 68.3565 8.63467 67.7992 8.048C67.2565 7.46133 66.4938 7.168 65.5112 7.168C64.8512 7.168 64.1838 7.29267 63.5092 7.542C62.8345 7.79133 62.2772 8.16533 61.8372 8.664C61.3972 9.16267 61.1772 9.764 61.1772 10.468C61.1772 11.0547 61.3238 11.6047 61.6172 12.118C61.9105 12.6167 62.3065 13.02 62.8052 13.328C63.3185 13.6213 63.8758 13.768 64.4772 13.768ZM75.2908 25.736C74.0588 25.736 73.0248 25.384 72.1888 24.68C71.3675 23.9907 70.8762 22.8247 70.7148 21.182C70.7002 20.9327 70.7368 20.742 70.8248 20.61C70.9275 20.478 71.0595 20.412 71.2208 20.412C71.3968 20.412 71.5508 20.478 71.6828 20.61C71.8148 20.7567 71.8735 20.9473 71.8588 21.182C71.8588 22.15 72.1888 22.9127 72.8488 23.47C73.5235 24.042 74.3815 24.328 75.4228 24.328C76.0242 24.328 76.5522 24.108 77.0068 23.668C77.4762 23.228 77.8355 22.612 78.0848 21.82C78.3342 21.0427 78.4588 20.148 78.4588 19.136C78.4588 17.3613 78.4808 15.638 78.5248 13.966L78.5468 12.844C77.9748 13.4453 77.4542 13.8853 76.9848 14.164C76.5302 14.4427 75.9802 14.582 75.3348 14.582C74.2055 14.582 73.3695 14.2813 72.8268 13.68C72.2988 13.064 72.0348 12.1253 72.0348 10.864C72.0348 10.1453 72.2255 9.39733 72.6068 8.62C73.0028 7.828 73.5382 7.168 74.2128 6.64C74.9022 6.112 75.6795 5.848 76.5448 5.848C76.8382 5.848 77.1095 5.87733 77.3588 5.936C78.2975 6.14133 78.9282 7.014 79.2508 8.554C79.5735 10.094 79.7348 12.0887 79.7348 14.538C79.7348 15.2127 79.7202 16.1073 79.6908 17.222L79.6688 19.312C79.6688 20.148 79.5368 21.0573 79.2728 22.04C79.0088 23.0373 78.5468 23.9027 77.8868 24.636C77.2268 25.3693 76.3615 25.736 75.2908 25.736ZM75.0048 13.13C76.0902 13.13 76.9115 12.8733 77.4688 12.36C78.0262 11.832 78.3048 11.062 78.3048 10.05C78.3048 9.918 78.2902 9.69067 78.2608 9.368C78.1875 8.69333 78.0115 8.16533 77.7328 7.784C77.4688 7.388 77.0508 7.19 76.4788 7.19C75.8775 7.19 75.3275 7.40267 74.8288 7.828C74.3302 8.25333 73.9415 8.78133 73.6628 9.412C73.3842 10.028 73.2448 10.6073 73.2448 11.15C73.2448 11.6927 73.4062 12.162 73.7288 12.558C74.0515 12.9393 74.4768 13.13 75.0048 13.13Z" fill="black"/>
</svg>
