<svg width="153" height="80" viewBox="0 0 153 80" fill="none" xmlns="http://www.w3.org/2000/svg">
<path d="M33.198 24.936C33.198 25.5667 33.2273 26.1827 33.286 26.784C33.3593 27.3707 33.4693 28.1993 33.616 29.27C33.8947 31.074 34.034 32.5113 34.034 33.582C34.034 33.802 33.99 33.934 33.902 33.978C33.814 34.022 33.7113 34.044 33.594 34.044C33.4767 34.044 33.396 34.044 33.352 34.044C33.1467 34.044 32.9853 34.022 32.868 33.978C32.7507 33.9193 32.6553 33.7873 32.582 33.582L32.12 27.598C32.076 26.9967 32.0173 25.7867 31.944 23.968C31.3133 24.7013 30.69 25.2587 30.074 25.64C29.458 26.0067 28.8273 26.19 28.182 26.19C27.258 26.19 26.334 25.5373 25.41 24.232C25.454 24.452 25.476 24.7453 25.476 25.112C25.476 25.4787 25.476 25.6913 25.476 25.75L25.454 32.944C25.454 33.0907 25.3733 33.208 25.212 33.296C25.0653 33.3693 24.9113 33.406 24.75 33.406C24.5447 33.406 24.398 33.3327 24.31 33.186C24.2367 33.0247 24.178 32.812 24.134 32.548V29.468C24.134 28.9987 24.1487 28.4707 24.178 27.884C24.2073 27.2973 24.2293 26.8867 24.244 26.652C24.3173 25.6253 24.354 24.694 24.354 23.858C24.354 23.6087 24.31 23.374 24.222 23.154C24.134 22.9193 24.002 22.6627 23.826 22.384C23.65 22.1053 23.518 21.8633 23.43 21.658C23.3567 21.4527 23.32 21.2327 23.32 20.998C23.32 20.7193 23.4593 20.58 23.738 20.58C24.178 20.58 24.5373 20.7413 24.816 21.064C25.0947 21.372 25.3953 21.8413 25.718 22.472C25.9967 22.9853 26.2387 23.3887 26.444 23.682C26.6493 23.9753 26.9133 24.232 27.236 24.452C27.5587 24.6573 27.9473 24.76 28.402 24.76C29.062 24.7893 29.6047 24.6647 30.03 24.386C30.4553 24.0927 30.778 23.7407 30.998 23.33C31.218 22.9193 31.4307 22.4207 31.636 21.834C31.812 21.35 31.966 21.0127 32.098 20.822C32.23 20.6167 32.3913 20.536 32.582 20.58C33.022 20.5507 33.242 20.954 33.242 21.79C33.242 22.494 33.2347 23.0147 33.22 23.352L33.198 24.936ZM46.3633 33.89C46.0993 33.89 45.8866 33.78 45.7253 33.56C45.5786 33.3253 45.4466 32.9733 45.3293 32.504C45.2119 32.02 45.0286 31.184 44.7793 29.996C44.5299 30.9787 44.0606 31.7633 43.3713 32.35C42.6819 32.922 41.8386 33.208 40.8413 33.208C39.9319 33.208 39.1619 32.8927 38.5313 32.262C37.9153 31.6167 37.4533 30.7733 37.1453 29.732C36.8373 28.676 36.6833 27.5393 36.6833 26.322C36.6833 25.7647 36.7346 25.288 36.8373 24.892C36.9546 24.4813 37.0939 24.1733 37.2553 23.968C37.4313 23.7627 37.5999 23.6673 37.7613 23.682C37.9373 23.682 38.0253 23.7993 38.0253 24.034C38.0253 24.2247 37.9739 24.5253 37.8713 24.936C37.7686 25.3907 37.7173 25.9113 37.7173 26.498C37.7173 27.378 37.8419 28.236 38.0913 29.072C38.3553 29.908 38.7366 30.5973 39.2353 31.14C39.7486 31.668 40.3499 31.932 41.0393 31.932C41.6113 31.932 42.1319 31.7633 42.6013 31.426C43.0706 31.0887 43.4373 30.6633 43.7013 30.15C43.9799 29.6367 44.1193 29.1307 44.1193 28.632V25.134C44.2806 24.826 44.5006 24.672 44.7793 24.672C45.0286 24.672 45.1973 24.8847 45.2853 25.31C45.3733 25.7353 45.4173 26.3367 45.4173 27.114C45.4173 27.774 45.4099 28.28 45.3953 28.632C45.4833 29.116 45.6153 29.6073 45.7913 30.106C45.9819 30.6047 46.2166 31.1693 46.4953 31.8C46.8326 32.5773 47.0013 33.054 47.0013 33.23C47.0013 33.67 46.7886 33.89 46.3633 33.89ZM50.8587 34.088C50.6533 34.1467 50.536 34.176 50.5067 34.176C50.3893 34.176 50.2647 34.1173 50.1327 34C49.6487 33.2813 49.2967 32.0273 49.0767 30.238C48.8713 28.4487 48.7687 26.9087 48.7687 25.618C48.7687 25.4127 48.9153 25.31 49.2087 25.31C49.6487 25.31 49.8687 25.552 49.8687 26.036C49.8687 26.168 49.8613 26.278 49.8467 26.366C49.9787 26.058 50.228 25.7427 50.5947 25.42C50.9613 25.0973 51.3867 24.826 51.8707 24.606C52.3547 24.386 52.846 24.276 53.3447 24.276C54.914 24.276 56.058 24.9727 56.7767 26.366C57.4953 27.7447 57.8547 29.4607 57.8547 31.514C57.8547 32.218 57.7813 32.7827 57.6347 33.208C57.488 33.6187 57.29 33.824 57.0407 33.824C56.7767 33.824 56.6447 33.7433 56.6447 33.582C56.7473 32.8047 56.7987 32.042 56.7987 31.294C56.7987 29.402 56.4687 27.972 55.8087 27.004C55.1487 26.0213 54.276 25.53 53.1907 25.53C52.6627 25.53 52.1493 25.662 51.6507 25.926C51.1667 26.19 50.7707 26.5567 50.4627 27.026C50.1693 27.4953 50.0227 28.0307 50.0227 28.632C50.0227 29.3067 50.0593 29.8933 50.1327 30.392C50.206 30.8907 50.3233 31.492 50.4847 32.196C50.6607 32.8853 50.7853 33.516 50.8587 34.088ZM63.3143 44.736C62.0823 44.736 61.0483 44.384 60.2123 43.68C59.3909 42.9907 58.8996 41.8247 58.7383 40.182C58.7236 39.9327 58.7603 39.742 58.8483 39.61C58.9509 39.478 59.0829 39.412 59.2443 39.412C59.4203 39.412 59.5743 39.478 59.7063 39.61C59.8383 39.7567 59.8969 39.9473 59.8823 40.182C59.8823 41.15 60.2123 41.9127 60.8723 42.47C61.5469 43.042 62.4049 43.328 63.4463 43.328C64.0476 43.328 64.5756 43.108 65.0303 42.668C65.4996 42.228 65.8589 41.612 66.1083 40.82C66.3576 40.0427 66.4823 39.148 66.4823 38.136C66.4823 36.3613 66.5043 34.638 66.5483 32.966L66.5703 31.844C65.9983 32.4453 65.4776 32.8853 65.0083 33.164C64.5536 33.4427 64.0036 33.582 63.3583 33.582C62.2289 33.582 61.3929 33.2813 60.8503 32.68C60.3223 32.064 60.0583 31.1253 60.0583 29.864C60.0583 29.1453 60.2489 28.3973 60.6303 27.62C61.0263 26.828 61.5616 26.168 62.2363 25.64C62.9256 25.112 63.7029 24.848 64.5683 24.848C64.8616 24.848 65.1329 24.8773 65.3823 24.936C66.3209 25.1413 66.9516 26.014 67.2743 27.554C67.5969 29.094 67.7583 31.0887 67.7583 33.538C67.7583 34.2127 67.7436 35.1073 67.7143 36.222L67.6923 38.312C67.6923 39.148 67.5603 40.0573 67.2963 41.04C67.0323 42.0373 66.5703 42.9027 65.9103 43.636C65.2503 44.3693 64.3849 44.736 63.3143 44.736ZM63.0283 32.13C64.1136 32.13 64.9349 31.8733 65.4923 31.36C66.0496 30.832 66.3283 30.062 66.3283 29.05C66.3283 28.918 66.3136 28.6907 66.2843 28.368C66.2109 27.6933 66.0349 27.1653 65.7563 26.784C65.4923 26.388 65.0743 26.19 64.5023 26.19C63.9009 26.19 63.3509 26.4027 62.8523 26.828C62.3536 27.2533 61.9649 27.7813 61.6863 28.412C61.4076 29.028 61.2683 29.6073 61.2683 30.15C61.2683 30.6927 61.4296 31.162 61.7523 31.558C62.0749 31.9393 62.5003 32.13 63.0283 32.13ZM79.9066 34.044C78.4399 34.044 77.3326 33.7947 76.5846 33.296C75.8366 32.7827 75.4626 31.8587 75.4626 30.524C75.7559 23.1907 76.2252 19.6927 76.8706 20.03C77.1932 20.0447 77.3546 20.5433 77.3546 21.526C77.3546 22.1273 77.2519 23.396 77.0466 25.332C76.7826 27.5613 76.6506 29.1967 76.6506 30.238L76.6726 30.876C76.6726 31.1987 76.7679 31.5213 76.9586 31.844C77.1639 32.1667 77.4206 32.3427 77.7286 32.372L82.0406 32.746C82.2019 32.7607 82.2826 32.9147 82.2826 33.208C82.2826 33.472 82.2166 33.6553 82.0846 33.758C81.9672 33.8607 81.7546 33.9413 81.4466 34L79.9066 34.044ZM87.7192 34.022C86.8538 34.022 86.0692 33.8313 85.3652 33.45C84.6758 33.054 84.1332 32.5113 83.7372 31.822C83.3558 31.118 83.1652 30.3187 83.1652 29.424C83.1652 27.9573 83.7005 26.8647 84.7712 26.146C85.8565 25.4273 87.1838 25.068 88.7532 25.068C89.4718 25.068 90.1392 25.244 90.7552 25.596C91.3858 25.948 91.8918 26.454 92.2732 27.114C92.6545 27.774 92.8452 28.5367 92.8452 29.402C92.8452 30.3407 92.6032 31.162 92.1192 31.866C91.6352 32.5553 90.9972 33.0907 90.2052 33.472C89.4278 33.8387 88.5992 34.022 87.7192 34.022ZM87.4772 32.768C88.8412 32.768 89.8752 32.46 90.5792 31.844C91.2832 31.228 91.6352 30.326 91.6352 29.138C91.6352 28.3313 91.3565 27.6347 90.7992 27.048C90.2565 26.4613 89.4938 26.168 88.5112 26.168C87.8512 26.168 87.1838 26.2927 86.5092 26.542C85.8345 26.7913 85.2772 27.1653 84.8372 27.664C84.3972 28.1627 84.1772 28.764 84.1772 29.468C84.1772 30.0547 84.3238 30.6047 84.6172 31.118C84.9105 31.6167 85.3065 32.02 85.8052 32.328C86.3185 32.6213 86.8758 32.768 87.4772 32.768ZM98.2908 44.736C97.0588 44.736 96.0248 44.384 95.1888 43.68C94.3675 42.9907 93.8762 41.8247 93.7148 40.182C93.7002 39.9327 93.7368 39.742 93.8248 39.61C93.9275 39.478 94.0595 39.412 94.2208 39.412C94.3968 39.412 94.5508 39.478 94.6828 39.61C94.8148 39.7567 94.8735 39.9473 94.8588 40.182C94.8588 41.15 95.1888 41.9127 95.8488 42.47C96.5235 43.042 97.3815 43.328 98.4228 43.328C99.0242 43.328 99.5522 43.108 100.007 42.668C100.476 42.228 100.836 41.612 101.085 40.82C101.334 40.0427 101.459 39.148 101.459 38.136C101.459 36.3613 101.481 34.638 101.525 32.966L101.547 31.844C100.975 32.4453 100.454 32.8853 99.9848 33.164C99.5302 33.4427 98.9802 33.582 98.3348 33.582C97.2055 33.582 96.3695 33.2813 95.8268 32.68C95.2988 32.064 95.0348 31.1253 95.0348 29.864C95.0348 29.1453 95.2255 28.3973 95.6068 27.62C96.0028 26.828 96.5382 26.168 97.2128 25.64C97.9022 25.112 98.6795 24.848 99.5448 24.848C99.8382 24.848 100.11 24.8773 100.359 24.936C101.298 25.1413 101.928 26.014 102.251 27.554C102.574 29.094 102.735 31.0887 102.735 33.538C102.735 34.2127 102.72 35.1073 102.691 36.222L102.669 38.312C102.669 39.148 102.537 40.0573 102.273 41.04C102.009 42.0373 101.547 42.9027 100.887 43.636C100.227 44.3693 99.3615 44.736 98.2908 44.736ZM98.0048 32.13C99.0902 32.13 99.9115 31.8733 100.469 31.36C101.026 30.832 101.305 30.062 101.305 29.05C101.305 28.918 101.29 28.6907 101.261 28.368C101.188 27.6933 101.012 27.1653 100.733 26.784C100.469 26.388 100.051 26.19 99.4788 26.19C98.8775 26.19 98.3275 26.4027 97.8288 26.828C97.3302 27.2533 96.9415 27.7813 96.6628 28.412C96.3842 29.028 96.2448 29.6073 96.2448 30.15C96.2448 30.6927 96.4062 31.162 96.7288 31.558C97.0515 31.9393 97.4768 32.13 98.0048 32.13Z" fill="black"/>
</svg>
