<svg width="154" height="81" viewBox="0 0 154 81" fill="none" xmlns="http://www.w3.org/2000/svg">
<path d="M34.198 25.936C34.198 26.5667 34.2273 27.1827 34.286 27.784C34.3593 28.3707 34.4693 29.1993 34.616 30.27C34.8947 32.074 35.034 33.5113 35.034 34.582C35.034 34.802 34.99 34.934 34.902 34.978C34.814 35.022 34.7113 35.044 34.594 35.044C34.4767 35.044 34.396 35.044 34.352 35.044C34.1467 35.044 33.9853 35.022 33.868 34.978C33.7507 34.9193 33.6553 34.7873 33.582 34.582L33.12 28.598C33.076 27.9967 33.0173 26.7867 32.944 24.968C32.3133 25.7013 31.69 26.2587 31.074 26.64C30.458 27.0067 29.8273 27.19 29.182 27.19C28.258 27.19 27.334 26.5373 26.41 25.232C26.454 25.452 26.476 25.7453 26.476 26.112C26.476 26.4787 26.476 26.6913 26.476 26.75L26.454 33.944C26.454 34.0907 26.3733 34.208 26.212 34.296C26.0653 34.3693 25.9113 34.406 25.75 34.406C25.5447 34.406 25.398 34.3327 25.31 34.186C25.2367 34.0247 25.178 33.812 25.134 33.548V30.468C25.134 29.9987 25.1487 29.4707 25.178 28.884C25.2073 28.2973 25.2293 27.8867 25.244 27.652C25.3173 26.6253 25.354 25.694 25.354 24.858C25.354 24.6087 25.31 24.374 25.222 24.154C25.134 23.9193 25.002 23.6627 24.826 23.384C24.65 23.1053 24.518 22.8633 24.43 22.658C24.3567 22.4527 24.32 22.2327 24.32 21.998C24.32 21.7193 24.4593 21.58 24.738 21.58C25.178 21.58 25.5373 21.7413 25.816 22.064C26.0947 22.372 26.3953 22.8413 26.718 23.472C26.9967 23.9853 27.2387 24.3887 27.444 24.682C27.6493 24.9753 27.9133 25.232 28.236 25.452C28.5587 25.6573 28.9473 25.76 29.402 25.76C30.062 25.7893 30.6047 25.6647 31.03 25.386C31.4553 25.0927 31.778 24.7407 31.998 24.33C32.218 23.9193 32.4307 23.4207 32.636 22.834C32.812 22.35 32.966 22.0127 33.098 21.822C33.23 21.6167 33.3913 21.536 33.582 21.58C34.022 21.5507 34.242 21.954 34.242 22.79C34.242 23.494 34.2347 24.0147 34.22 24.352L34.198 25.936ZM47.3633 34.89C47.0993 34.89 46.8866 34.78 46.7253 34.56C46.5786 34.3253 46.4466 33.9733 46.3293 33.504C46.2119 33.02 46.0286 32.184 45.7793 30.996C45.5299 31.9787 45.0606 32.7633 44.3713 33.35C43.6819 33.922 42.8386 34.208 41.8413 34.208C40.9319 34.208 40.1619 33.8927 39.5313 33.262C38.9153 32.6167 38.4533 31.7733 38.1453 30.732C37.8373 29.676 37.6833 28.5393 37.6833 27.322C37.6833 26.7647 37.7346 26.288 37.8373 25.892C37.9546 25.4813 38.0939 25.1733 38.2553 24.968C38.4313 24.7627 38.5999 24.6673 38.7613 24.682C38.9373 24.682 39.0253 24.7993 39.0253 25.034C39.0253 25.2247 38.9739 25.5253 38.8713 25.936C38.7686 26.3907 38.7173 26.9113 38.7173 27.498C38.7173 28.378 38.8419 29.236 39.0913 30.072C39.3553 30.908 39.7366 31.5973 40.2353 32.14C40.7486 32.668 41.3499 32.932 42.0393 32.932C42.6113 32.932 43.1319 32.7633 43.6013 32.426C44.0706 32.0887 44.4373 31.6633 44.7013 31.15C44.9799 30.6367 45.1193 30.1307 45.1193 29.632V26.134C45.2806 25.826 45.5006 25.672 45.7793 25.672C46.0286 25.672 46.1973 25.8847 46.2853 26.31C46.3733 26.7353 46.4173 27.3367 46.4173 28.114C46.4173 28.774 46.4099 29.28 46.3953 29.632C46.4833 30.116 46.6153 30.6073 46.7913 31.106C46.9819 31.6047 47.2166 32.1693 47.4953 32.8C47.8326 33.5773 48.0013 34.054 48.0013 34.23C48.0013 34.67 47.7886 34.89 47.3633 34.89ZM51.8587 35.088C51.6533 35.1467 51.536 35.176 51.5067 35.176C51.3893 35.176 51.2647 35.1173 51.1327 35C50.6487 34.2813 50.2967 33.0273 50.0767 31.238C49.8713 29.4487 49.7687 27.9087 49.7687 26.618C49.7687 26.4127 49.9153 26.31 50.2087 26.31C50.6487 26.31 50.8687 26.552 50.8687 27.036C50.8687 27.168 50.8613 27.278 50.8467 27.366C50.9787 27.058 51.228 26.7427 51.5947 26.42C51.9613 26.0973 52.3867 25.826 52.8707 25.606C53.3547 25.386 53.846 25.276 54.3447 25.276C55.914 25.276 57.058 25.9727 57.7767 27.366C58.4953 28.7447 58.8547 30.4607 58.8547 32.514C58.8547 33.218 58.7813 33.7827 58.6347 34.208C58.488 34.6187 58.29 34.824 58.0407 34.824C57.7767 34.824 57.6447 34.7433 57.6447 34.582C57.7473 33.8047 57.7987 33.042 57.7987 32.294C57.7987 30.402 57.4687 28.972 56.8087 28.004C56.1487 27.0213 55.276 26.53 54.1907 26.53C53.6627 26.53 53.1493 26.662 52.6507 26.926C52.1667 27.19 51.7707 27.5567 51.4627 28.026C51.1693 28.4953 51.0227 29.0307 51.0227 29.632C51.0227 30.3067 51.0593 30.8933 51.1327 31.392C51.206 31.8907 51.3233 32.492 51.4847 33.196C51.6607 33.8853 51.7853 34.516 51.8587 35.088ZM64.3143 45.736C63.0823 45.736 62.0483 45.384 61.2123 44.68C60.3909 43.9907 59.8996 42.8247 59.7383 41.182C59.7236 40.9327 59.7603 40.742 59.8483 40.61C59.9509 40.478 60.0829 40.412 60.2443 40.412C60.4203 40.412 60.5743 40.478 60.7063 40.61C60.8383 40.7567 60.8969 40.9473 60.8823 41.182C60.8823 42.15 61.2123 42.9127 61.8723 43.47C62.5469 44.042 63.4049 44.328 64.4463 44.328C65.0476 44.328 65.5756 44.108 66.0303 43.668C66.4996 43.228 66.8589 42.612 67.1083 41.82C67.3576 41.0427 67.4823 40.148 67.4823 39.136C67.4823 37.3613 67.5043 35.638 67.5483 33.966L67.5703 32.844C66.9983 33.4453 66.4776 33.8853 66.0083 34.164C65.5536 34.4427 65.0036 34.582 64.3583 34.582C63.2289 34.582 62.3929 34.2813 61.8503 33.68C61.3223 33.064 61.0583 32.1253 61.0583 30.864C61.0583 30.1453 61.2489 29.3973 61.6303 28.62C62.0263 27.828 62.5616 27.168 63.2363 26.64C63.9256 26.112 64.7029 25.848 65.5683 25.848C65.8616 25.848 66.1329 25.8773 66.3823 25.936C67.3209 26.1413 67.9516 27.014 68.2743 28.554C68.5969 30.094 68.7583 32.0887 68.7583 34.538C68.7583 35.2127 68.7436 36.1073 68.7143 37.222L68.6923 39.312C68.6923 40.148 68.5603 41.0573 68.2963 42.04C68.0323 43.0373 67.5703 43.9027 66.9103 44.636C66.2503 45.3693 65.3849 45.736 64.3143 45.736ZM64.0283 33.13C65.1136 33.13 65.9349 32.8733 66.4923 32.36C67.0496 31.832 67.3283 31.062 67.3283 30.05C67.3283 29.918 67.3136 29.6907 67.2843 29.368C67.2109 28.6933 67.0349 28.1653 66.7563 27.784C66.4923 27.388 66.0743 27.19 65.5023 27.19C64.9009 27.19 64.3509 27.4027 63.8523 27.828C63.3536 28.2533 62.9649 28.7813 62.6863 29.412C62.4076 30.028 62.2683 30.6073 62.2683 31.15C62.2683 31.6927 62.4296 32.162 62.7523 32.558C63.0749 32.9393 63.5003 33.13 64.0283 33.13ZM80.9066 35.044C79.4399 35.044 78.3326 34.7947 77.5846 34.296C76.8366 33.7827 76.4626 32.8587 76.4626 31.524C76.7559 24.1907 77.2252 20.6927 77.8706 21.03C78.1932 21.0447 78.3546 21.5433 78.3546 22.526C78.3546 23.1273 78.2519 24.396 78.0466 26.332C77.7826 28.5613 77.6506 30.1967 77.6506 31.238L77.6726 31.876C77.6726 32.1987 77.7679 32.5213 77.9586 32.844C78.1639 33.1667 78.4206 33.3427 78.7286 33.372L83.0406 33.746C83.2019 33.7607 83.2826 33.9147 83.2826 34.208C83.2826 34.472 83.2166 34.6553 83.0846 34.758C82.9672 34.8607 82.7546 34.9413 82.4466 35L80.9066 35.044ZM88.7192 35.022C87.8538 35.022 87.0692 34.8313 86.3652 34.45C85.6758 34.054 85.1332 33.5113 84.7372 32.822C84.3558 32.118 84.1652 31.3187 84.1652 30.424C84.1652 28.9573 84.7005 27.8647 85.7712 27.146C86.8565 26.4273 88.1838 26.068 89.7532 26.068C90.4718 26.068 91.1392 26.244 91.7552 26.596C92.3858 26.948 92.8918 27.454 93.2732 28.114C93.6545 28.774 93.8452 29.5367 93.8452 30.402C93.8452 31.3407 93.6032 32.162 93.1192 32.866C92.6352 33.5553 91.9972 34.0907 91.2052 34.472C90.4278 34.8387 89.5992 35.022 88.7192 35.022ZM88.4772 33.768C89.8412 33.768 90.8752 33.46 91.5792 32.844C92.2832 32.228 92.6352 31.326 92.6352 30.138C92.6352 29.3313 92.3565 28.6347 91.7992 28.048C91.2565 27.4613 90.4938 27.168 89.5112 27.168C88.8512 27.168 88.1838 27.2927 87.5092 27.542C86.8345 27.7913 86.2772 28.1653 85.8372 28.664C85.3972 29.1627 85.1772 29.764 85.1772 30.468C85.1772 31.0547 85.3238 31.6047 85.6172 32.118C85.9105 32.6167 86.3065 33.02 86.8052 33.328C87.3185 33.6213 87.8758 33.768 88.4772 33.768ZM99.2908 45.736C98.0588 45.736 97.0248 45.384 96.1888 44.68C95.3675 43.9907 94.8762 42.8247 94.7148 41.182C94.7002 40.9327 94.7368 40.742 94.8248 40.61C94.9275 40.478 95.0595 40.412 95.2208 40.412C95.3968 40.412 95.5508 40.478 95.6828 40.61C95.8148 40.7567 95.8735 40.9473 95.8588 41.182C95.8588 42.15 96.1888 42.9127 96.8488 43.47C97.5235 44.042 98.3815 44.328 99.4228 44.328C100.024 44.328 100.552 44.108 101.007 43.668C101.476 43.228 101.836 42.612 102.085 41.82C102.334 41.0427 102.459 40.148 102.459 39.136C102.459 37.3613 102.481 35.638 102.525 33.966L102.547 32.844C101.975 33.4453 101.454 33.8853 100.985 34.164C100.53 34.4427 99.9802 34.582 99.3348 34.582C98.2055 34.582 97.3695 34.2813 96.8268 33.68C96.2988 33.064 96.0348 32.1253 96.0348 30.864C96.0348 30.1453 96.2255 29.3973 96.6068 28.62C97.0028 27.828 97.5382 27.168 98.2128 26.64C98.9022 26.112 99.6795 25.848 100.545 25.848C100.838 25.848 101.11 25.8773 101.359 25.936C102.298 26.1413 102.928 27.014 103.251 28.554C103.574 30.094 103.735 32.0887 103.735 34.538C103.735 35.2127 103.72 36.1073 103.691 37.222L103.669 39.312C103.669 40.148 103.537 41.0573 103.273 42.04C103.009 43.0373 102.547 43.9027 101.887 44.636C101.227 45.3693 100.362 45.736 99.2908 45.736ZM99.0048 33.13C100.09 33.13 100.912 32.8733 101.469 32.36C102.026 31.832 102.305 31.062 102.305 30.05C102.305 29.918 102.29 29.6907 102.261 29.368C102.188 28.6933 102.012 28.1653 101.733 27.784C101.469 27.388 101.051 27.19 100.479 27.19C99.8775 27.19 99.3275 27.4027 98.8288 27.828C98.3302 28.2533 97.9415 28.7813 97.6628 29.412C97.3842 30.028 97.2448 30.6073 97.2448 31.15C97.2448 31.6927 97.4062 32.162 97.7288 32.558C98.0515 32.9393 98.4768 33.13 99.0048 33.13Z" fill="black"/>
<path d="M34.198 25.936C34.198 26.5667 34.2273 27.1827 34.286 27.784C34.3593 28.3707 34.4693 29.1993 34.616 30.27C34.8947 32.074 35.034 33.5113 35.034 34.582C35.034 34.802 34.99 34.934 34.902 34.978C34.814 35.022 34.7113 35.044 34.594 35.044C34.4767 35.044 34.396 35.044 34.352 35.044C34.1467 35.044 33.9853 35.022 33.868 34.978C33.7507 34.9193 33.6553 34.7873 33.582 34.582L33.12 28.598C33.076 27.9967 33.0173 26.7867 32.944 24.968C32.3133 25.7013 31.69 26.2587 31.074 26.64C30.458 27.0067 29.8273 27.19 29.182 27.19C28.258 27.19 27.334 26.5373 26.41 25.232C26.454 25.452 26.476 25.7453 26.476 26.112C26.476 26.4787 26.476 26.6913 26.476 26.75L26.454 33.944C26.454 34.0907 26.3733 34.208 26.212 34.296C26.0653 34.3693 25.9113 34.406 25.75 34.406C25.5447 34.406 25.398 34.3327 25.31 34.186C25.2367 34.0247 25.178 33.812 25.134 33.548V30.468C25.134 29.9987 25.1487 29.4707 25.178 28.884C25.2073 28.2973 25.2293 27.8867 25.244 27.652C25.3173 26.6253 25.354 25.694 25.354 24.858C25.354 24.6087 25.31 24.374 25.222 24.154C25.134 23.9193 25.002 23.6627 24.826 23.384C24.65 23.1053 24.518 22.8633 24.43 22.658C24.3567 22.4527 24.32 22.2327 24.32 21.998C24.32 21.7193 24.4593 21.58 24.738 21.58C25.178 21.58 25.5373 21.7413 25.816 22.064C26.0947 22.372 26.3953 22.8413 26.718 23.472C26.9967 23.9853 27.2387 24.3887 27.444 24.682C27.6493 24.9753 27.9133 25.232 28.236 25.452C28.5587 25.6573 28.9473 25.76 29.402 25.76C30.062 25.7893 30.6047 25.6647 31.03 25.386C31.4553 25.0927 31.778 24.7407 31.998 24.33C32.218 23.9193 32.4307 23.4207 32.636 22.834C32.812 22.35 32.966 22.0127 33.098 21.822C33.23 21.6167 33.3913 21.536 33.582 21.58C34.022 21.5507 34.242 21.954 34.242 22.79C34.242 23.494 34.2347 24.0147 34.22 24.352L34.198 25.936ZM47.3633 34.89C47.0993 34.89 46.8866 34.78 46.7253 34.56C46.5786 34.3253 46.4466 33.9733 46.3293 33.504C46.2119 33.02 46.0286 32.184 45.7793 30.996C45.5299 31.9787 45.0606 32.7633 44.3713 33.35C43.6819 33.922 42.8386 34.208 41.8413 34.208C40.9319 34.208 40.1619 33.8927 39.5313 33.262C38.9153 32.6167 38.4533 31.7733 38.1453 30.732C37.8373 29.676 37.6833 28.5393 37.6833 27.322C37.6833 26.7647 37.7346 26.288 37.8373 25.892C37.9546 25.4813 38.0939 25.1733 38.2553 24.968C38.4313 24.7627 38.5999 24.6673 38.7613 24.682C38.9373 24.682 39.0253 24.7993 39.0253 25.034C39.0253 25.2247 38.9739 25.5253 38.8713 25.936C38.7686 26.3907 38.7173 26.9113 38.7173 27.498C38.7173 28.378 38.8419 29.236 39.0913 30.072C39.3553 30.908 39.7366 31.5973 40.2353 32.14C40.7486 32.668 41.3499 32.932 42.0393 32.932C42.6113 32.932 43.1319 32.7633 43.6013 32.426C44.0706 32.0887 44.4373 31.6633 44.7013 31.15C44.9799 30.6367 45.1193 30.1307 45.1193 29.632V26.134C45.2806 25.826 45.5006 25.672 45.7793 25.672C46.0286 25.672 46.1973 25.8847 46.2853 26.31C46.3733 26.7353 46.4173 27.3367 46.4173 28.114C46.4173 28.774 46.4099 29.28 46.3953 29.632C46.4833 30.116 46.6153 30.6073 46.7913 31.106C46.9819 31.6047 47.2166 32.1693 47.4953 32.8C47.8326 33.5773 48.0013 34.054 48.0013 34.23C48.0013 34.67 47.7886 34.89 47.3633 34.89ZM51.8587 35.088C51.6533 35.1467 51.536 35.176 51.5067 35.176C51.3893 35.176 51.2647 35.1173 51.1327 35C50.6487 34.2813 50.2967 33.0273 50.0767 31.238C49.8713 29.4487 49.7687 27.9087 49.7687 26.618C49.7687 26.4127 49.9153 26.31 50.2087 26.31C50.6487 26.31 50.8687 26.552 50.8687 27.036C50.8687 27.168 50.8613 27.278 50.8467 27.366C50.9787 27.058 51.228 26.7427 51.5947 26.42C51.9613 26.0973 52.3867 25.826 52.8707 25.606C53.3547 25.386 53.846 25.276 54.3447 25.276C55.914 25.276 57.058 25.9727 57.7767 27.366C58.4953 28.7447 58.8547 30.4607 58.8547 32.514C58.8547 33.218 58.7813 33.7827 58.6347 34.208C58.488 34.6187 58.29 34.824 58.0407 34.824C57.7767 34.824 57.6447 34.7433 57.6447 34.582C57.7473 33.8047 57.7987 33.042 57.7987 32.294C57.7987 30.402 57.4687 28.972 56.8087 28.004C56.1487 27.0213 55.276 26.53 54.1907 26.53C53.6627 26.53 53.1493 26.662 52.6507 26.926C52.1667 27.19 51.7707 27.5567 51.4627 28.026C51.1693 28.4953 51.0227 29.0307 51.0227 29.632C51.0227 30.3067 51.0593 30.8933 51.1327 31.392C51.206 31.8907 51.3233 32.492 51.4847 33.196C51.6607 33.8853 51.7853 34.516 51.8587 35.088ZM64.3143 45.736C63.0823 45.736 62.0483 45.384 61.2123 44.68C60.3909 43.9907 59.8996 42.8247 59.7383 41.182C59.7236 40.9327 59.7603 40.742 59.8483 40.61C59.9509 40.478 60.0829 40.412 60.2443 40.412C60.4203 40.412 60.5743 40.478 60.7063 40.61C60.8383 40.7567 60.8969 40.9473 60.8823 41.182C60.8823 42.15 61.2123 42.9127 61.8723 43.47C62.5469 44.042 63.4049 44.328 64.4463 44.328C65.0476 44.328 65.5756 44.108 66.0303 43.668C66.4996 43.228 66.8589 42.612 67.1083 41.82C67.3576 41.0427 67.4823 40.148 67.4823 39.136C67.4823 37.3613 67.5043 35.638 67.5483 33.966L67.5703 32.844C66.9983 33.4453 66.4776 33.8853 66.0083 34.164C65.5536 34.4427 65.0036 34.582 64.3583 34.582C63.2289 34.582 62.3929 34.2813 61.8503 33.68C61.3223 33.064 61.0583 32.1253 61.0583 30.864C61.0583 30.1453 61.2489 29.3973 61.6303 28.62C62.0263 27.828 62.5616 27.168 63.2363 26.64C63.9256 26.112 64.7029 25.848 65.5683 25.848C65.8616 25.848 66.1329 25.8773 66.3823 25.936C67.3209 26.1413 67.9516 27.014 68.2743 28.554C68.5969 30.094 68.7583 32.0887 68.7583 34.538C68.7583 35.2127 68.7436 36.1073 68.7143 37.222L68.6923 39.312C68.6923 40.148 68.5603 41.0573 68.2963 42.04C68.0323 43.0373 67.5703 43.9027 66.9103 44.636C66.2503 45.3693 65.3849 45.736 64.3143 45.736ZM64.0283 33.13C65.1136 33.13 65.9349 32.8733 66.4923 32.36C67.0496 31.832 67.3283 31.062 67.3283 30.05C67.3283 29.918 67.3136 29.6907 67.2843 29.368C67.2109 28.6933 67.0349 28.1653 66.7563 27.784C66.4923 27.388 66.0743 27.19 65.5023 27.19C64.9009 27.19 64.3509 27.4027 63.8523 27.828C63.3536 28.2533 62.9649 28.7813 62.6863 29.412C62.4076 30.028 62.2683 30.6073 62.2683 31.15C62.2683 31.6927 62.4296 32.162 62.7523 32.558C63.0749 32.9393 63.5003 33.13 64.0283 33.13ZM80.9066 35.044C79.4399 35.044 78.3326 34.7947 77.5846 34.296C76.8366 33.7827 76.4626 32.8587 76.4626 31.524C76.7559 24.1907 77.2252 20.6927 77.8706 21.03C78.1932 21.0447 78.3546 21.5433 78.3546 22.526C78.3546 23.1273 78.2519 24.396 78.0466 26.332C77.7826 28.5613 77.6506 30.1967 77.6506 31.238L77.6726 31.876C77.6726 32.1987 77.7679 32.5213 77.9586 32.844C78.1639 33.1667 78.4206 33.3427 78.7286 33.372L83.0406 33.746C83.2019 33.7607 83.2826 33.9147 83.2826 34.208C83.2826 34.472 83.2166 34.6553 83.0846 34.758C82.9672 34.8607 82.7546 34.9413 82.4466 35L80.9066 35.044ZM88.7192 35.022C87.8538 35.022 87.0692 34.8313 86.3652 34.45C85.6758 34.054 85.1332 33.5113 84.7372 32.822C84.3558 32.118 84.1652 31.3187 84.1652 30.424C84.1652 28.9573 84.7005 27.8647 85.7712 27.146C86.8565 26.4273 88.1838 26.068 89.7532 26.068C90.4718 26.068 91.1392 26.244 91.7552 26.596C92.3858 26.948 92.8918 27.454 93.2732 28.114C93.6545 28.774 93.8452 29.5367 93.8452 30.402C93.8452 31.3407 93.6032 32.162 93.1192 32.866C92.6352 33.5553 91.9972 34.0907 91.2052 34.472C90.4278 34.8387 89.5992 35.022 88.7192 35.022ZM88.4772 33.768C89.8412 33.768 90.8752 33.46 91.5792 32.844C92.2832 32.228 92.6352 31.326 92.6352 30.138C92.6352 29.3313 92.3565 28.6347 91.7992 28.048C91.2565 27.4613 90.4938 27.168 89.5112 27.168C88.8512 27.168 88.1838 27.2927 87.5092 27.542C86.8345 27.7913 86.2772 28.1653 85.8372 28.664C85.3972 29.1627 85.1772 29.764 85.1772 30.468C85.1772 31.0547 85.3238 31.6047 85.6172 32.118C85.9105 32.6167 86.3065 33.02 86.8052 33.328C87.3185 33.6213 87.8758 33.768 88.4772 33.768ZM99.2908 45.736C98.0588 45.736 97.0248 45.384 96.1888 44.68C95.3675 43.9907 94.8762 42.8247 94.7148 41.182C94.7002 40.9327 94.7368 40.742 94.8248 40.61C94.9275 40.478 95.0595 40.412 95.2208 40.412C95.3968 40.412 95.5508 40.478 95.6828 40.61C95.8148 40.7567 95.8735 40.9473 95.8588 41.182C95.8588 42.15 96.1888 42.9127 96.8488 43.47C97.5235 44.042 98.3815 44.328 99.4228 44.328C100.024 44.328 100.552 44.108 101.007 43.668C101.476 43.228 101.836 42.612 102.085 41.82C102.334 41.0427 102.459 40.148 102.459 39.136C102.459 37.3613 102.481 35.638 102.525 33.966L102.547 32.844C101.975 33.4453 101.454 33.8853 100.985 34.164C100.53 34.4427 99.9802 34.582 99.3348 34.582C98.2055 34.582 97.3695 34.2813 96.8268 33.68C96.2988 33.064 96.0348 32.1253 96.0348 30.864C96.0348 30.1453 96.2255 29.3973 96.6068 28.62C97.0028 27.828 97.5382 27.168 98.2128 26.64C98.9022 26.112 99.6795 25.848 100.545 25.848C100.838 25.848 101.11 25.8773 101.359 25.936C102.298 26.1413 102.928 27.014 103.251 28.554C103.574 30.094 103.735 32.0887 103.735 34.538C103.735 35.2127 103.72 36.1073 103.691 37.222L103.669 39.312C103.669 40.148 103.537 41.0573 103.273 42.04C103.009 43.0373 102.547 43.9027 101.887 44.636C101.227 45.3693 100.362 45.736 99.2908 45.736ZM99.0048 33.13C100.09 33.13 100.912 32.8733 101.469 32.36C102.026 31.832 102.305 31.062 102.305 30.05C102.305 29.918 102.29 29.6907 102.261 29.368C102.188 28.6933 102.012 28.1653 101.733 27.784C101.469 27.388 101.051 27.19 100.479 27.19C99.8775 27.19 99.3275 27.4027 98.8288 27.828C98.3302 28.2533 97.9415 28.7813 97.6628 29.412C97.3842 30.028 97.2448 30.6073 97.2448 31.15C97.2448 31.6927 97.4062 32.162 97.7288 32.558C98.0515 32.9393 98.4768 33.13 99.0048 33.13Z" fill="black"/>
<path d="M34.198 25.936C34.198 26.5667 34.2273 27.1827 34.286 27.784C34.3593 28.3707 34.4693 29.1993 34.616 30.27C34.8947 32.074 35.034 33.5113 35.034 34.582C35.034 34.802 34.99 34.934 34.902 34.978C34.814 35.022 34.7113 35.044 34.594 35.044C34.4767 35.044 34.396 35.044 34.352 35.044C34.1467 35.044 33.9853 35.022 33.868 34.978C33.7507 34.9193 33.6553 34.7873 33.582 34.582L33.12 28.598C33.076 27.9967 33.0173 26.7867 32.944 24.968C32.3133 25.7013 31.69 26.2587 31.074 26.64C30.458 27.0067 29.8273 27.19 29.182 27.19C28.258 27.19 27.334 26.5373 26.41 25.232C26.454 25.452 26.476 25.7453 26.476 26.112C26.476 26.4787 26.476 26.6913 26.476 26.75L26.454 33.944C26.454 34.0907 26.3733 34.208 26.212 34.296C26.0653 34.3693 25.9113 34.406 25.75 34.406C25.5447 34.406 25.398 34.3327 25.31 34.186C25.2367 34.0247 25.178 33.812 25.134 33.548V30.468C25.134 29.9987 25.1487 29.4707 25.178 28.884C25.2073 28.2973 25.2293 27.8867 25.244 27.652C25.3173 26.6253 25.354 25.694 25.354 24.858C25.354 24.6087 25.31 24.374 25.222 24.154C25.134 23.9193 25.002 23.6627 24.826 23.384C24.65 23.1053 24.518 22.8633 24.43 22.658C24.3567 22.4527 24.32 22.2327 24.32 21.998C24.32 21.7193 24.4593 21.58 24.738 21.58C25.178 21.58 25.5373 21.7413 25.816 22.064C26.0947 22.372 26.3953 22.8413 26.718 23.472C26.9967 23.9853 27.2387 24.3887 27.444 24.682C27.6493 24.9753 27.9133 25.232 28.236 25.452C28.5587 25.6573 28.9473 25.76 29.402 25.76C30.062 25.7893 30.6047 25.6647 31.03 25.386C31.4553 25.0927 31.778 24.7407 31.998 24.33C32.218 23.9193 32.4307 23.4207 32.636 22.834C32.812 22.35 32.966 22.0127 33.098 21.822C33.23 21.6167 33.3913 21.536 33.582 21.58C34.022 21.5507 34.242 21.954 34.242 22.79C34.242 23.494 34.2347 24.0147 34.22 24.352L34.198 25.936ZM47.3633 34.89C47.0993 34.89 46.8866 34.78 46.7253 34.56C46.5786 34.3253 46.4466 33.9733 46.3293 33.504C46.2119 33.02 46.0286 32.184 45.7793 30.996C45.5299 31.9787 45.0606 32.7633 44.3713 33.35C43.6819 33.922 42.8386 34.208 41.8413 34.208C40.9319 34.208 40.1619 33.8927 39.5313 33.262C38.9153 32.6167 38.4533 31.7733 38.1453 30.732C37.8373 29.676 37.6833 28.5393 37.6833 27.322C37.6833 26.7647 37.7346 26.288 37.8373 25.892C37.9546 25.4813 38.0939 25.1733 38.2553 24.968C38.4313 24.7627 38.5999 24.6673 38.7613 24.682C38.9373 24.682 39.0253 24.7993 39.0253 25.034C39.0253 25.2247 38.9739 25.5253 38.8713 25.936C38.7686 26.3907 38.7173 26.9113 38.7173 27.498C38.7173 28.378 38.8419 29.236 39.0913 30.072C39.3553 30.908 39.7366 31.5973 40.2353 32.14C40.7486 32.668 41.3499 32.932 42.0393 32.932C42.6113 32.932 43.1319 32.7633 43.6013 32.426C44.0706 32.0887 44.4373 31.6633 44.7013 31.15C44.9799 30.6367 45.1193 30.1307 45.1193 29.632V26.134C45.2806 25.826 45.5006 25.672 45.7793 25.672C46.0286 25.672 46.1973 25.8847 46.2853 26.31C46.3733 26.7353 46.4173 27.3367 46.4173 28.114C46.4173 28.774 46.4099 29.28 46.3953 29.632C46.4833 30.116 46.6153 30.6073 46.7913 31.106C46.9819 31.6047 47.2166 32.1693 47.4953 32.8C47.8326 33.5773 48.0013 34.054 48.0013 34.23C48.0013 34.67 47.7886 34.89 47.3633 34.89ZM51.8587 35.088C51.6533 35.1467 51.536 35.176 51.5067 35.176C51.3893 35.176 51.2647 35.1173 51.1327 35C50.6487 34.2813 50.2967 33.0273 50.0767 31.238C49.8713 29.4487 49.7687 27.9087 49.7687 26.618C49.7687 26.4127 49.9153 26.31 50.2087 26.31C50.6487 26.31 50.8687 26.552 50.8687 27.036C50.8687 27.168 50.8613 27.278 50.8467 27.366C50.9787 27.058 51.228 26.7427 51.5947 26.42C51.9613 26.0973 52.3867 25.826 52.8707 25.606C53.3547 25.386 53.846 25.276 54.3447 25.276C55.914 25.276 57.058 25.9727 57.7767 27.366C58.4953 28.7447 58.8547 30.4607 58.8547 32.514C58.8547 33.218 58.7813 33.7827 58.6347 34.208C58.488 34.6187 58.29 34.824 58.0407 34.824C57.7767 34.824 57.6447 34.7433 57.6447 34.582C57.7473 33.8047 57.7987 33.042 57.7987 32.294C57.7987 30.402 57.4687 28.972 56.8087 28.004C56.1487 27.0213 55.276 26.53 54.1907 26.53C53.6627 26.53 53.1493 26.662 52.6507 26.926C52.1667 27.19 51.7707 27.5567 51.4627 28.026C51.1693 28.4953 51.0227 29.0307 51.0227 29.632C51.0227 30.3067 51.0593 30.8933 51.1327 31.392C51.206 31.8907 51.3233 32.492 51.4847 33.196C51.6607 33.8853 51.7853 34.516 51.8587 35.088ZM64.3143 45.736C63.0823 45.736 62.0483 45.384 61.2123 44.68C60.3909 43.9907 59.8996 42.8247 59.7383 41.182C59.7236 40.9327 59.7603 40.742 59.8483 40.61C59.9509 40.478 60.0829 40.412 60.2443 40.412C60.4203 40.412 60.5743 40.478 60.7063 40.61C60.8383 40.7567 60.8969 40.9473 60.8823 41.182C60.8823 42.15 61.2123 42.9127 61.8723 43.47C62.5469 44.042 63.4049 44.328 64.4463 44.328C65.0476 44.328 65.5756 44.108 66.0303 43.668C66.4996 43.228 66.8589 42.612 67.1083 41.82C67.3576 41.0427 67.4823 40.148 67.4823 39.136C67.4823 37.3613 67.5043 35.638 67.5483 33.966L67.5703 32.844C66.9983 33.4453 66.4776 33.8853 66.0083 34.164C65.5536 34.4427 65.0036 34.582 64.3583 34.582C63.2289 34.582 62.3929 34.2813 61.8503 33.68C61.3223 33.064 61.0583 32.1253 61.0583 30.864C61.0583 30.1453 61.2489 29.3973 61.6303 28.62C62.0263 27.828 62.5616 27.168 63.2363 26.64C63.9256 26.112 64.7029 25.848 65.5683 25.848C65.8616 25.848 66.1329 25.8773 66.3823 25.936C67.3209 26.1413 67.9516 27.014 68.2743 28.554C68.5969 30.094 68.7583 32.0887 68.7583 34.538C68.7583 35.2127 68.7436 36.1073 68.7143 37.222L68.6923 39.312C68.6923 40.148 68.5603 41.0573 68.2963 42.04C68.0323 43.0373 67.5703 43.9027 66.9103 44.636C66.2503 45.3693 65.3849 45.736 64.3143 45.736ZM64.0283 33.13C65.1136 33.13 65.9349 32.8733 66.4923 32.36C67.0496 31.832 67.3283 31.062 67.3283 30.05C67.3283 29.918 67.3136 29.6907 67.2843 29.368C67.2109 28.6933 67.0349 28.1653 66.7563 27.784C66.4923 27.388 66.0743 27.19 65.5023 27.19C64.9009 27.19 64.3509 27.4027 63.8523 27.828C63.3536 28.2533 62.9649 28.7813 62.6863 29.412C62.4076 30.028 62.2683 30.6073 62.2683 31.15C62.2683 31.6927 62.4296 32.162 62.7523 32.558C63.0749 32.9393 63.5003 33.13 64.0283 33.13ZM80.9066 35.044C79.4399 35.044 78.3326 34.7947 77.5846 34.296C76.8366 33.7827 76.4626 32.8587 76.4626 31.524C76.7559 24.1907 77.2252 20.6927 77.8706 21.03C78.1932 21.0447 78.3546 21.5433 78.3546 22.526C78.3546 23.1273 78.2519 24.396 78.0466 26.332C77.7826 28.5613 77.6506 30.1967 77.6506 31.238L77.6726 31.876C77.6726 32.1987 77.7679 32.5213 77.9586 32.844C78.1639 33.1667 78.4206 33.3427 78.7286 33.372L83.0406 33.746C83.2019 33.7607 83.2826 33.9147 83.2826 34.208C83.2826 34.472 83.2166 34.6553 83.0846 34.758C82.9672 34.8607 82.7546 34.9413 82.4466 35L80.9066 35.044ZM88.7192 35.022C87.8538 35.022 87.0692 34.8313 86.3652 34.45C85.6758 34.054 85.1332 33.5113 84.7372 32.822C84.3558 32.118 84.1652 31.3187 84.1652 30.424C84.1652 28.9573 84.7005 27.8647 85.7712 27.146C86.8565 26.4273 88.1838 26.068 89.7532 26.068C90.4718 26.068 91.1392 26.244 91.7552 26.596C92.3858 26.948 92.8918 27.454 93.2732 28.114C93.6545 28.774 93.8452 29.5367 93.8452 30.402C93.8452 31.3407 93.6032 32.162 93.1192 32.866C92.6352 33.5553 91.9972 34.0907 91.2052 34.472C90.4278 34.8387 89.5992 35.022 88.7192 35.022ZM88.4772 33.768C89.8412 33.768 90.8752 33.46 91.5792 32.844C92.2832 32.228 92.6352 31.326 92.6352 30.138C92.6352 29.3313 92.3565 28.6347 91.7992 28.048C91.2565 27.4613 90.4938 27.168 89.5112 27.168C88.8512 27.168 88.1838 27.2927 87.5092 27.542C86.8345 27.7913 86.2772 28.1653 85.8372 28.664C85.3972 29.1627 85.1772 29.764 85.1772 30.468C85.1772 31.0547 85.3238 31.6047 85.6172 32.118C85.9105 32.6167 86.3065 33.02 86.8052 33.328C87.3185 33.6213 87.8758 33.768 88.4772 33.768ZM99.2908 45.736C98.0588 45.736 97.0248 45.384 96.1888 44.68C95.3675 43.9907 94.8762 42.8247 94.7148 41.182C94.7002 40.9327 94.7368 40.742 94.8248 40.61C94.9275 40.478 95.0595 40.412 95.2208 40.412C95.3968 40.412 95.5508 40.478 95.6828 40.61C95.8148 40.7567 95.8735 40.9473 95.8588 41.182C95.8588 42.15 96.1888 42.9127 96.8488 43.47C97.5235 44.042 98.3815 44.328 99.4228 44.328C100.024 44.328 100.552 44.108 101.007 43.668C101.476 43.228 101.836 42.612 102.085 41.82C102.334 41.0427 102.459 40.148 102.459 39.136C102.459 37.3613 102.481 35.638 102.525 33.966L102.547 32.844C101.975 33.4453 101.454 33.8853 100.985 34.164C100.53 34.4427 99.9802 34.582 99.3348 34.582C98.2055 34.582 97.3695 34.2813 96.8268 33.68C96.2988 33.064 96.0348 32.1253 96.0348 30.864C96.0348 30.1453 96.2255 29.3973 96.6068 28.62C97.0028 27.828 97.5382 27.168 98.2128 26.64C98.9022 26.112 99.6795 25.848 100.545 25.848C100.838 25.848 101.11 25.8773 101.359 25.936C102.298 26.1413 102.928 27.014 103.251 28.554C103.574 30.094 103.735 32.0887 103.735 34.538C103.735 35.2127 103.72 36.1073 103.691 37.222L103.669 39.312C103.669 40.148 103.537 41.0573 103.273 42.04C103.009 43.0373 102.547 43.9027 101.887 44.636C101.227 45.3693 100.362 45.736 99.2908 45.736ZM99.0048 33.13C100.09 33.13 100.912 32.8733 101.469 32.36C102.026 31.832 102.305 31.062 102.305 30.05C102.305 29.918 102.29 29.6907 102.261 29.368C102.188 28.6933 102.012 28.1653 101.733 27.784C101.469 27.388 101.051 27.19 100.479 27.19C99.8775 27.19 99.3275 27.4027 98.8288 27.828C98.3302 28.2533 97.9415 28.7813 97.6628 29.412C97.3842 30.028 97.2448 30.6073 97.2448 31.15C97.2448 31.6927 97.4062 32.162 97.7288 32.558C98.0515 32.9393 98.4768 33.13 99.0048 33.13Z" fill="black"/>
<path d="M1 1V81C2.92969 71.5 9.42969 63 22.4315 62C42.4297 62 95.4297 62.5 109.93 62C119.81 61.6593 133.43 53.5 133.93 37.5V20.5C133.93 12 143.43 1.5 153.93 1H1Z" fill="white" stroke="white" stroke-width="0.1"/>
<path d="M34.198 25.936C34.198 26.5667 34.2273 27.1827 34.286 27.784C34.3593 28.3707 34.4693 29.1993 34.616 30.27C34.8947 32.074 35.034 33.5113 35.034 34.582C35.034 34.802 34.99 34.934 34.902 34.978C34.814 35.022 34.7113 35.044 34.594 35.044C34.4767 35.044 34.396 35.044 34.352 35.044C34.1467 35.044 33.9853 35.022 33.868 34.978C33.7507 34.9193 33.6553 34.7873 33.582 34.582L33.12 28.598C33.076 27.9967 33.0173 26.7867 32.944 24.968C32.3133 25.7013 31.69 26.2587 31.074 26.64C30.458 27.0067 29.8273 27.19 29.182 27.19C28.258 27.19 27.334 26.5373 26.41 25.232C26.454 25.452 26.476 25.7453 26.476 26.112C26.476 26.4787 26.476 26.6913 26.476 26.75L26.454 33.944C26.454 34.0907 26.3733 34.208 26.212 34.296C26.0653 34.3693 25.9113 34.406 25.75 34.406C25.5447 34.406 25.398 34.3327 25.31 34.186C25.2367 34.0247 25.178 33.812 25.134 33.548V30.468C25.134 29.9987 25.1487 29.4707 25.178 28.884C25.2073 28.2973 25.2293 27.8867 25.244 27.652C25.3173 26.6253 25.354 25.694 25.354 24.858C25.354 24.6087 25.31 24.374 25.222 24.154C25.134 23.9193 25.002 23.6627 24.826 23.384C24.65 23.1053 24.518 22.8633 24.43 22.658C24.3567 22.4527 24.32 22.2327 24.32 21.998C24.32 21.7193 24.4593 21.58 24.738 21.58C25.178 21.58 25.5373 21.7413 25.816 22.064C26.0947 22.372 26.3953 22.8413 26.718 23.472C26.9967 23.9853 27.2387 24.3887 27.444 24.682C27.6493 24.9753 27.9133 25.232 28.236 25.452C28.5587 25.6573 28.9473 25.76 29.402 25.76C30.062 25.7893 30.6047 25.6647 31.03 25.386C31.4553 25.0927 31.778 24.7407 31.998 24.33C32.218 23.9193 32.4307 23.4207 32.636 22.834C32.812 22.35 32.966 22.0127 33.098 21.822C33.23 21.6167 33.3913 21.536 33.582 21.58C34.022 21.5507 34.242 21.954 34.242 22.79C34.242 23.494 34.2347 24.0147 34.22 24.352L34.198 25.936ZM47.3633 34.89C47.0993 34.89 46.8866 34.78 46.7253 34.56C46.5786 34.3253 46.4466 33.9733 46.3293 33.504C46.2119 33.02 46.0286 32.184 45.7793 30.996C45.5299 31.9787 45.0606 32.7633 44.3713 33.35C43.6819 33.922 42.8386 34.208 41.8413 34.208C40.9319 34.208 40.1619 33.8927 39.5313 33.262C38.9153 32.6167 38.4533 31.7733 38.1453 30.732C37.8373 29.676 37.6833 28.5393 37.6833 27.322C37.6833 26.7647 37.7346 26.288 37.8373 25.892C37.9546 25.4813 38.0939 25.1733 38.2553 24.968C38.4313 24.7627 38.5999 24.6673 38.7613 24.682C38.9373 24.682 39.0253 24.7993 39.0253 25.034C39.0253 25.2247 38.9739 25.5253 38.8713 25.936C38.7686 26.3907 38.7173 26.9113 38.7173 27.498C38.7173 28.378 38.8419 29.236 39.0913 30.072C39.3553 30.908 39.7366 31.5973 40.2353 32.14C40.7486 32.668 41.3499 32.932 42.0393 32.932C42.6113 32.932 43.1319 32.7633 43.6013 32.426C44.0706 32.0887 44.4373 31.6633 44.7013 31.15C44.9799 30.6367 45.1193 30.1307 45.1193 29.632V26.134C45.2806 25.826 45.5006 25.672 45.7793 25.672C46.0286 25.672 46.1973 25.8847 46.2853 26.31C46.3733 26.7353 46.4173 27.3367 46.4173 28.114C46.4173 28.774 46.4099 29.28 46.3953 29.632C46.4833 30.116 46.6153 30.6073 46.7913 31.106C46.9819 31.6047 47.2166 32.1693 47.4953 32.8C47.8326 33.5773 48.0013 34.054 48.0013 34.23C48.0013 34.67 47.7886 34.89 47.3633 34.89ZM51.8587 35.088C51.6533 35.1467 51.536 35.176 51.5067 35.176C51.3893 35.176 51.2647 35.1173 51.1327 35C50.6487 34.2813 50.2967 33.0273 50.0767 31.238C49.8713 29.4487 49.7687 27.9087 49.7687 26.618C49.7687 26.4127 49.9153 26.31 50.2087 26.31C50.6487 26.31 50.8687 26.552 50.8687 27.036C50.8687 27.168 50.8613 27.278 50.8467 27.366C50.9787 27.058 51.228 26.7427 51.5947 26.42C51.9613 26.0973 52.3867 25.826 52.8707 25.606C53.3547 25.386 53.846 25.276 54.3447 25.276C55.914 25.276 57.058 25.9727 57.7767 27.366C58.4953 28.7447 58.8547 30.4607 58.8547 32.514C58.8547 33.218 58.7813 33.7827 58.6347 34.208C58.488 34.6187 58.29 34.824 58.0407 34.824C57.7767 34.824 57.6447 34.7433 57.6447 34.582C57.7473 33.8047 57.7987 33.042 57.7987 32.294C57.7987 30.402 57.4687 28.972 56.8087 28.004C56.1487 27.0213 55.276 26.53 54.1907 26.53C53.6627 26.53 53.1493 26.662 52.6507 26.926C52.1667 27.19 51.7707 27.5567 51.4627 28.026C51.1693 28.4953 51.0227 29.0307 51.0227 29.632C51.0227 30.3067 51.0593 30.8933 51.1327 31.392C51.206 31.8907 51.3233 32.492 51.4847 33.196C51.6607 33.8853 51.7853 34.516 51.8587 35.088ZM64.3143 45.736C63.0823 45.736 62.0483 45.384 61.2123 44.68C60.3909 43.9907 59.8996 42.8247 59.7383 41.182C59.7236 40.9327 59.7603 40.742 59.8483 40.61C59.9509 40.478 60.0829 40.412 60.2443 40.412C60.4203 40.412 60.5743 40.478 60.7063 40.61C60.8383 40.7567 60.8969 40.9473 60.8823 41.182C60.8823 42.15 61.2123 42.9127 61.8723 43.47C62.5469 44.042 63.4049 44.328 64.4463 44.328C65.0476 44.328 65.5756 44.108 66.0303 43.668C66.4996 43.228 66.8589 42.612 67.1083 41.82C67.3576 41.0427 67.4823 40.148 67.4823 39.136C67.4823 37.3613 67.5043 35.638 67.5483 33.966L67.5703 32.844C66.9983 33.4453 66.4776 33.8853 66.0083 34.164C65.5536 34.4427 65.0036 34.582 64.3583 34.582C63.2289 34.582 62.3929 34.2813 61.8503 33.68C61.3223 33.064 61.0583 32.1253 61.0583 30.864C61.0583 30.1453 61.2489 29.3973 61.6303 28.62C62.0263 27.828 62.5616 27.168 63.2363 26.64C63.9256 26.112 64.7029 25.848 65.5683 25.848C65.8616 25.848 66.1329 25.8773 66.3823 25.936C67.3209 26.1413 67.9516 27.014 68.2743 28.554C68.5969 30.094 68.7583 32.0887 68.7583 34.538C68.7583 35.2127 68.7436 36.1073 68.7143 37.222L68.6923 39.312C68.6923 40.148 68.5603 41.0573 68.2963 42.04C68.0323 43.0373 67.5703 43.9027 66.9103 44.636C66.2503 45.3693 65.3849 45.736 64.3143 45.736ZM64.0283 33.13C65.1136 33.13 65.9349 32.8733 66.4923 32.36C67.0496 31.832 67.3283 31.062 67.3283 30.05C67.3283 29.918 67.3136 29.6907 67.2843 29.368C67.2109 28.6933 67.0349 28.1653 66.7563 27.784C66.4923 27.388 66.0743 27.19 65.5023 27.19C64.9009 27.19 64.3509 27.4027 63.8523 27.828C63.3536 28.2533 62.9649 28.7813 62.6863 29.412C62.4076 30.028 62.2683 30.6073 62.2683 31.15C62.2683 31.6927 62.4296 32.162 62.7523 32.558C63.0749 32.9393 63.5003 33.13 64.0283 33.13ZM80.9066 35.044C79.4399 35.044 78.3326 34.7947 77.5846 34.296C76.8366 33.7827 76.4626 32.8587 76.4626 31.524C76.7559 24.1907 77.2252 20.6927 77.8706 21.03C78.1932 21.0447 78.3546 21.5433 78.3546 22.526C78.3546 23.1273 78.2519 24.396 78.0466 26.332C77.7826 28.5613 77.6506 30.1967 77.6506 31.238L77.6726 31.876C77.6726 32.1987 77.7679 32.5213 77.9586 32.844C78.1639 33.1667 78.4206 33.3427 78.7286 33.372L83.0406 33.746C83.2019 33.7607 83.2826 33.9147 83.2826 34.208C83.2826 34.472 83.2166 34.6553 83.0846 34.758C82.9672 34.8607 82.7546 34.9413 82.4466 35L80.9066 35.044ZM88.7192 35.022C87.8538 35.022 87.0692 34.8313 86.3652 34.45C85.6758 34.054 85.1332 33.5113 84.7372 32.822C84.3558 32.118 84.1652 31.3187 84.1652 30.424C84.1652 28.9573 84.7005 27.8647 85.7712 27.146C86.8565 26.4273 88.1838 26.068 89.7532 26.068C90.4718 26.068 91.1392 26.244 91.7552 26.596C92.3858 26.948 92.8918 27.454 93.2732 28.114C93.6545 28.774 93.8452 29.5367 93.8452 30.402C93.8452 31.3407 93.6032 32.162 93.1192 32.866C92.6352 33.5553 91.9972 34.0907 91.2052 34.472C90.4278 34.8387 89.5992 35.022 88.7192 35.022ZM88.4772 33.768C89.8412 33.768 90.8752 33.46 91.5792 32.844C92.2832 32.228 92.6352 31.326 92.6352 30.138C92.6352 29.3313 92.3565 28.6347 91.7992 28.048C91.2565 27.4613 90.4938 27.168 89.5112 27.168C88.8512 27.168 88.1838 27.2927 87.5092 27.542C86.8345 27.7913 86.2772 28.1653 85.8372 28.664C85.3972 29.1627 85.1772 29.764 85.1772 30.468C85.1772 31.0547 85.3238 31.6047 85.6172 32.118C85.9105 32.6167 86.3065 33.02 86.8052 33.328C87.3185 33.6213 87.8758 33.768 88.4772 33.768ZM99.2908 45.736C98.0588 45.736 97.0248 45.384 96.1888 44.68C95.3675 43.9907 94.8762 42.8247 94.7148 41.182C94.7002 40.9327 94.7368 40.742 94.8248 40.61C94.9275 40.478 95.0595 40.412 95.2208 40.412C95.3968 40.412 95.5508 40.478 95.6828 40.61C95.8148 40.7567 95.8735 40.9473 95.8588 41.182C95.8588 42.15 96.1888 42.9127 96.8488 43.47C97.5235 44.042 98.3815 44.328 99.4228 44.328C100.024 44.328 100.552 44.108 101.007 43.668C101.476 43.228 101.836 42.612 102.085 41.82C102.334 41.0427 102.459 40.148 102.459 39.136C102.459 37.3613 102.481 35.638 102.525 33.966L102.547 32.844C101.975 33.4453 101.454 33.8853 100.985 34.164C100.53 34.4427 99.9802 34.582 99.3348 34.582C98.2055 34.582 97.3695 34.2813 96.8268 33.68C96.2988 33.064 96.0348 32.1253 96.0348 30.864C96.0348 30.1453 96.2255 29.3973 96.6068 28.62C97.0028 27.828 97.5382 27.168 98.2128 26.64C98.9022 26.112 99.6795 25.848 100.545 25.848C100.838 25.848 101.11 25.8773 101.359 25.936C102.298 26.1413 102.928 27.014 103.251 28.554C103.574 30.094 103.735 32.0887 103.735 34.538C103.735 35.2127 103.72 36.1073 103.691 37.222L103.669 39.312C103.669 40.148 103.537 41.0573 103.273 42.04C103.009 43.0373 102.547 43.9027 101.887 44.636C101.227 45.3693 100.362 45.736 99.2908 45.736ZM99.0048 33.13C100.09 33.13 100.912 32.8733 101.469 32.36C102.026 31.832 102.305 31.062 102.305 30.05C102.305 29.918 102.29 29.6907 102.261 29.368C102.188 28.6933 102.012 28.1653 101.733 27.784C101.469 27.388 101.051 27.19 100.479 27.19C99.8775 27.19 99.3275 27.4027 98.8288 27.828C98.3302 28.2533 97.9415 28.7813 97.6628 29.412C97.3842 30.028 97.2448 30.6073 97.2448 31.15C97.2448 31.6927 97.4062 32.162 97.7288 32.558C98.0515 32.9393 98.4768 33.13 99.0048 33.13Z" fill="black"/>
</svg>
