<svg width="99" height="32" viewBox="0 0 99 32" fill="none" xmlns="http://www.w3.org/2000/svg">
<path d="M12.743 6.876C12.743 7.65 12.779 8.406 12.851 9.144C12.941 9.864 13.076 10.881 13.256 12.195C13.598 14.409 13.769 16.173 13.769 17.487C13.769 17.757 13.715 17.919 13.607 17.973C13.499 18.027 13.373 18.054 13.229 18.054C13.085 18.054 12.986 18.054 12.932 18.054C12.68 18.054 12.482 18.027 12.338 17.973C12.194 17.901 12.077 17.739 11.987 17.487L11.42 10.143C11.366 9.405 11.294 7.92 11.204 5.688C10.43 6.588 9.665 7.272 8.909 7.74C8.153 8.19 7.379 8.415 6.587 8.415C5.453 8.415 4.319 7.614 3.185 6.012C3.239 6.282 3.266 6.642 3.266 7.092C3.266 7.542 3.266 7.803 3.266 7.875L3.239 16.704C3.239 16.884 3.14 17.028 2.942 17.136C2.762 17.226 2.573 17.271 2.375 17.271C2.123 17.271 1.943 17.181 1.835 17.001C1.745 16.803 1.673 16.542 1.619 16.218V12.438C1.619 11.862 1.637 11.214 1.673 10.494C1.709 9.774 1.736 9.27 1.754 8.982C1.844 7.722 1.889 6.579 1.889 5.553C1.889 5.247 1.835 4.959 1.727 4.689C1.619 4.401 1.457 4.086 1.241 3.744C1.025 3.402 0.863 3.105 0.755 2.853C0.665 2.601 0.62 2.331 0.62 2.043C0.62 1.701 0.791 1.53 1.133 1.53C1.673 1.53 2.114 1.728 2.456 2.124C2.798 2.502 3.167 3.078 3.563 3.852C3.905 4.482 4.202 4.977 4.454 5.337C4.706 5.697 5.03 6.012 5.426 6.282C5.822 6.534 6.299 6.66 6.857 6.66C7.667 6.696 8.333 6.543 8.855 6.201C9.377 5.841 9.773 5.409 10.043 4.905C10.313 4.401 10.574 3.789 10.826 3.069C11.042 2.475 11.231 2.061 11.393 1.827C11.555 1.575 11.753 1.476 11.987 1.53C12.527 1.494 12.797 1.989 12.797 3.015C12.797 3.879 12.788 4.518 12.77 4.932L12.743 6.876ZM28.9004 17.865C28.5764 17.865 28.3154 17.73 28.1174 17.46C27.9374 17.172 27.7754 16.74 27.6314 16.164C27.4874 15.57 27.2624 14.544 26.9564 13.086C26.6504 14.292 26.0744 15.255 25.2284 15.975C24.3824 16.677 23.3474 17.028 22.1234 17.028C21.0074 17.028 20.0624 16.641 19.2884 15.867C18.5324 15.075 17.9654 14.04 17.5874 12.762C17.2094 11.466 17.0204 10.071 17.0204 8.577C17.0204 7.893 17.0834 7.308 17.2094 6.822C17.3534 6.318 17.5244 5.94 17.7224 5.688C17.9384 5.436 18.1454 5.319 18.3434 5.337C18.5594 5.337 18.6674 5.481 18.6674 5.769C18.6674 6.003 18.6044 6.372 18.4784 6.876C18.3524 7.434 18.2894 8.073 18.2894 8.793C18.2894 9.873 18.4424 10.926 18.7484 11.952C19.0724 12.978 19.5404 13.824 20.1524 14.49C20.7824 15.138 21.5204 15.462 22.3664 15.462C23.0684 15.462 23.7074 15.255 24.2834 14.841C24.8594 14.427 25.3094 13.905 25.6334 13.275C25.9754 12.645 26.1464 12.024 26.1464 11.412V7.119C26.3444 6.741 26.6144 6.552 26.9564 6.552C27.2624 6.552 27.4694 6.813 27.5774 7.335C27.6854 7.857 27.7394 8.595 27.7394 9.549C27.7394 10.359 27.7304 10.98 27.7124 11.412C27.8204 12.006 27.9824 12.609 28.1984 13.221C28.4324 13.833 28.7204 14.526 29.0624 15.3C29.4764 16.254 29.6834 16.839 29.6834 17.055C29.6834 17.595 29.4224 17.865 28.9004 17.865ZM34.4175 18.108C34.1655 18.18 34.0215 18.216 33.9855 18.216C33.8415 18.216 33.6885 18.144 33.5265 18C32.9325 17.118 32.5005 15.579 32.2305 13.383C31.9785 11.187 31.8525 9.297 31.8525 7.713C31.8525 7.461 32.0325 7.335 32.3925 7.335C32.9325 7.335 33.2025 7.632 33.2025 8.226C33.2025 8.388 33.1935 8.523 33.1755 8.631C33.3375 8.253 33.6435 7.866 34.0935 7.47C34.5435 7.074 35.0655 6.741 35.6595 6.471C36.2535 6.201 36.8565 6.066 37.4685 6.066C39.3945 6.066 40.7985 6.921 41.6805 8.631C42.5625 10.323 43.0035 12.429 43.0035 14.949C43.0035 15.813 42.9135 16.506 42.7335 17.028C42.5535 17.532 42.3105 17.784 42.0045 17.784C41.6805 17.784 41.5185 17.685 41.5185 17.487C41.6445 16.533 41.7075 15.597 41.7075 14.679C41.7075 12.357 41.3025 10.602 40.4925 9.414C39.6825 8.208 38.6115 7.605 37.2795 7.605C36.6315 7.605 36.0015 7.767 35.3895 8.091C34.7955 8.415 34.3095 8.865 33.9315 9.441C33.5715 10.017 33.3915 10.674 33.3915 11.412C33.3915 12.24 33.4365 12.96 33.5265 13.572C33.6165 14.184 33.7605 14.922 33.9585 15.786C34.1745 16.632 34.3275 17.406 34.4175 18.108ZM49.7039 31.176C48.1919 31.176 46.9229 30.744 45.8969 29.88C44.8889 29.034 44.2859 27.603 44.0879 25.587C44.0699 25.281 44.1149 25.047 44.2229 24.885C44.3489 24.723 44.5109 24.642 44.7089 24.642C44.9249 24.642 45.1139 24.723 45.2759 24.885C45.4379 25.065 45.5099 25.299 45.4919 25.587C45.4919 26.775 45.8969 27.711 46.7069 28.395C47.5349 29.097 48.5879 29.448 49.8659 29.448C50.6039 29.448 51.2519 29.178 51.8099 28.638C52.3859 28.098 52.8269 27.342 53.1329 26.37C53.4389 25.416 53.5919 24.318 53.5919 23.076C53.5919 20.898 53.6189 18.783 53.6729 16.731L53.6999 15.354C52.9979 16.092 52.3589 16.632 51.7829 16.974C51.2249 17.316 50.5499 17.487 49.7579 17.487C48.3719 17.487 47.3459 17.118 46.6799 16.38C46.0319 15.624 45.7079 14.472 45.7079 12.924C45.7079 12.042 45.9419 11.124 46.4099 10.17C46.8959 9.198 47.5529 8.388 48.3809 7.74C49.2269 7.092 50.1809 6.768 51.2429 6.768C51.6029 6.768 51.9359 6.804 52.2419 6.876C53.3939 7.128 54.1679 8.199 54.5639 10.089C54.9599 11.979 55.1579 14.427 55.1579 17.433C55.1579 18.261 55.1399 19.359 55.1039 20.727L55.0769 23.292C55.0769 24.318 54.9149 25.434 54.5909 26.64C54.2669 27.864 53.6999 28.926 52.8899 29.826C52.0799 30.726 51.0179 31.176 49.7039 31.176ZM49.3529 15.705C50.6849 15.705 51.6929 15.39 52.3769 14.76C53.0609 14.112 53.4029 13.167 53.4029 11.925C53.4029 11.763 53.3849 11.484 53.3489 11.088C53.2589 10.26 53.0429 9.612 52.7009 9.144C52.3769 8.658 51.8639 8.415 51.1619 8.415C50.4239 8.415 49.7489 8.676 49.1369 9.198C48.5249 9.72 48.0479 10.368 47.7059 11.142C47.3639 11.898 47.1929 12.609 47.1929 13.275C47.1929 13.941 47.3909 14.517 47.7869 15.003C48.1829 15.471 48.7049 15.705 49.3529 15.705ZM70.0672 18.054C68.2672 18.054 66.9082 17.748 65.9902 17.136C65.0722 16.506 64.6132 15.372 64.6132 13.734C64.9732 4.734 65.5492 0.440999 66.3412 0.854999C66.7372 0.872999 66.9352 1.485 66.9352 2.691C66.9352 3.429 66.8092 4.986 66.5572 7.362C66.2332 10.098 66.0712 12.105 66.0712 13.383L66.0982 14.166C66.0982 14.562 66.2152 14.958 66.4492 15.354C66.7012 15.75 67.0162 15.966 67.3942 16.002L72.6862 16.461C72.8842 16.479 72.9832 16.668 72.9832 17.028C72.9832 17.352 72.9022 17.577 72.7402 17.703C72.5962 17.829 72.3352 17.928 71.9572 18L70.0672 18.054ZM79.6553 18.027C78.5933 18.027 77.6303 17.793 76.7663 17.325C75.9203 16.839 75.2543 16.173 74.7683 15.327C74.3003 14.463 74.0663 13.482 74.0663 12.384C74.0663 10.584 74.7233 9.243 76.0373 8.361C77.3693 7.479 78.9983 7.038 80.9243 7.038C81.8063 7.038 82.6253 7.254 83.3813 7.686C84.1553 8.118 84.7763 8.739 85.2443 9.549C85.7123 10.359 85.9463 11.295 85.9463 12.357C85.9463 13.509 85.6493 14.517 85.0553 15.381C84.4613 16.227 83.6783 16.884 82.7063 17.352C81.7523 17.802 80.7353 18.027 79.6553 18.027ZM79.3583 16.488C81.0323 16.488 82.3013 16.11 83.1653 15.354C84.0293 14.598 84.4613 13.491 84.4613 12.033C84.4613 11.043 84.1193 10.188 83.4353 9.468C82.7693 8.748 81.8333 8.388 80.6273 8.388C79.8173 8.388 78.9983 8.541 78.1703 8.847C77.3423 9.153 76.6583 9.612 76.1183 10.224C75.5783 10.836 75.3083 11.574 75.3083 12.438C75.3083 13.158 75.4883 13.833 75.8483 14.463C76.2083 15.075 76.6943 15.57 77.3063 15.948C77.9363 16.308 78.6203 16.488 79.3583 16.488ZM92.6297 31.176C91.1177 31.176 89.8487 30.744 88.8227 29.88C87.8147 29.034 87.2117 27.603 87.0137 25.587C86.9957 25.281 87.0407 25.047 87.1487 24.885C87.2747 24.723 87.4367 24.642 87.6347 24.642C87.8507 24.642 88.0397 24.723 88.2017 24.885C88.3637 25.065 88.4357 25.299 88.4177 25.587C88.4177 26.775 88.8227 27.711 89.6327 28.395C90.4607 29.097 91.5137 29.448 92.7917 29.448C93.5297 29.448 94.1777 29.178 94.7357 28.638C95.3117 28.098 95.7527 27.342 96.0587 26.37C96.3647 25.416 96.5177 24.318 96.5177 23.076C96.5177 20.898 96.5447 18.783 96.5987 16.731L96.6257 15.354C95.9237 16.092 95.2847 16.632 94.7087 16.974C94.1507 17.316 93.4757 17.487 92.6837 17.487C91.2977 17.487 90.2717 17.118 89.6057 16.38C88.9577 15.624 88.6337 14.472 88.6337 12.924C88.6337 12.042 88.8677 11.124 89.3357 10.17C89.8217 9.198 90.4787 8.388 91.3067 7.74C92.1527 7.092 93.1067 6.768 94.1687 6.768C94.5287 6.768 94.8617 6.804 95.1677 6.876C96.3197 7.128 97.0937 8.199 97.4897 10.089C97.8857 11.979 98.0837 14.427 98.0837 17.433C98.0837 18.261 98.0657 19.359 98.0297 20.727L98.0027 23.292C98.0027 24.318 97.8407 25.434 97.5167 26.64C97.1927 27.864 96.6257 28.926 95.8157 29.826C95.0057 30.726 93.9437 31.176 92.6297 31.176ZM92.2787 15.705C93.6107 15.705 94.6187 15.39 95.3027 14.76C95.9867 14.112 96.3287 13.167 96.3287 11.925C96.3287 11.763 96.3107 11.484 96.2747 11.088C96.1847 10.26 95.9687 9.612 95.6267 9.144C95.3027 8.658 94.7897 8.415 94.0877 8.415C93.3497 8.415 92.6747 8.676 92.0627 9.198C91.4507 9.72 90.9737 10.368 90.6317 11.142C90.2897 11.898 90.1187 12.609 90.1187 13.275C90.1187 13.941 90.3167 14.517 90.7127 15.003C91.1087 15.471 91.6307 15.705 92.2787 15.705Z" fill="white"/>
</svg>
