<svg width="29" height="27" viewBox="0 0 29 27" fill="none" xmlns="http://www.w3.org/2000/svg">
<rect x="1" y="14.8555" width="27" height="2.48684" rx="1.24342" stroke="#828282" stroke-width="1.5" stroke-linejoin="round"/>
<path d="M2.15483 17.4307C1.88838 20.184 2.74101 25.7794 8.28312 26.1347H20.3621C22.7009 26.0459 27.2719 24.1807 26.8456 17.4307M5.08574 14.5886C5.17455 13.8189 5.24561 12.0307 4.81929 11.036C4.2864 9.79258 3.75349 9.97021 2.95416 9.97021C2.15483 9.97021 0.733763 9.52614 1.17784 8.10508C1.62192 6.68403 2.33244 7.57219 3.57587 6.06232C4.81929 4.55245 6.86205 4.46364 7.75021 4.64127C8.41364 4.77395 8.97383 5.69129 9.21388 6.22201C9.24577 6.29254 9.2655 6.36676 9.28065 6.44267C9.4393 7.23743 10.0602 8.88813 11.4805 9.97021C13.3456 11.3913 15.9213 12.6347 16.543 14.5886M6.24034 8.10508C6.26994 8.84521 6.48902 10.3255 7.1285 10.3255C7.92784 10.3255 8.10547 9.17087 8.19429 8.10508M21.2502 3.84193V1.53271H23.293V3.84193M21.2502 3.84193H23.293M21.2502 3.84193C20.8357 4.16758 20.0068 5.03206 20.0068 5.88469C20.0068 6.73732 20.0068 10.0886 20.0068 11.6577C20.0364 11.9834 20.3265 12.6347 21.2502 12.6347C22.1309 12.6347 23.2431 12.6347 23.7553 12.6347C23.8026 12.6347 23.8497 12.6328 23.895 12.6189C24.1132 12.5519 24.4476 12.2959 24.4476 11.6577C24.4476 10.9472 24.4476 7.51298 24.4476 5.88469C24.4476 5.44061 24.2167 4.41035 23.293 3.84193" stroke="#828282" stroke-width="1.5" stroke-linecap="round" stroke-linejoin="round"/>
<circle cx="11.8349" cy="2.77632" r="1.77632" stroke="#828282"/>
<circle cx="16.2747" cy="3.66432" r="1.24342" stroke="#828282"/>
<circle cx="14.1458" cy="6.86207" r="1.24342" stroke="#828282"/>
</svg>
