<svg width="35" height="35" viewBox="0 0 35 35" fill="none" xmlns="http://www.w3.org/2000/svg">
<mask id="mask0_846_294" style="mask-type:alpha" maskUnits="userSpaceOnUse" x="0" y="0" width="35" height="35">
<rect width="35" height="35" fill="#D9D9D9"/>
</mask>
<g mask="url(#mask0_846_294)">
<rect x="4" y="18.8555" width="27" height="2.48684" rx="1.24342" stroke="#828282" stroke-width="1.5" stroke-linejoin="round"/>
<path d="M5.15483 21.4307C4.88838 24.184 5.74101 29.7794 11.2831 30.1347H23.3621C25.7009 30.0459 30.2719 28.1807 29.8456 21.4307M8.08574 18.5886C8.17455 17.8189 8.24561 16.0307 7.81929 15.036C7.2864 13.7926 6.75349 13.9702 5.95416 13.9702C5.15483 13.9702 3.73376 13.5261 4.17784 12.1051C4.62192 10.684 5.33244 11.5722 6.57587 10.0623C7.81929 8.55245 9.86205 8.46364 10.7502 8.64127C11.4136 8.77395 11.9738 9.69129 12.2139 10.222C12.2458 10.2925 12.2655 10.3668 12.2807 10.4427C12.4393 11.2374 13.0602 12.8881 14.4805 13.9702C16.3456 15.3913 18.9213 16.6347 19.543 18.5886M9.24034 12.1051C9.26994 12.8452 9.48902 14.3255 10.1285 14.3255C10.9278 14.3255 11.1055 13.1709 11.1943 12.1051M24.2502 7.84193V5.53271H26.293V7.84193M24.2502 7.84193H26.293M24.2502 7.84193C23.8357 8.16758 23.0068 9.03206 23.0068 9.88469C23.0068 10.7373 23.0068 14.0886 23.0068 15.6577C23.0364 15.9834 23.3265 16.6347 24.2502 16.6347C25.1309 16.6347 26.2431 16.6347 26.7553 16.6347C26.8026 16.6347 26.8497 16.6328 26.895 16.6189C27.1132 16.5519 27.4476 16.2959 27.4476 15.6577C27.4476 14.9472 27.4476 11.513 27.4476 9.88469C27.4476 9.44061 27.2167 8.41035 26.293 7.84193" stroke="#828282" stroke-width="1.5" stroke-linecap="round" stroke-linejoin="round"/>
<circle cx="14.8349" cy="6.77632" r="1.77632" stroke="#828282"/>
<circle cx="19.2747" cy="7.66432" r="1.24342" stroke="#828282"/>
<circle cx="17.1458" cy="10.8621" r="1.24342" stroke="#828282"/>
</g>
</svg>
