<svg width="35" height="35" viewBox="0 0 35 35" fill="none" xmlns="http://www.w3.org/2000/svg">
<mask id="mask0_846_292" style="mask-type:alpha" maskUnits="userSpaceOnUse" x="0" y="0" width="35" height="35">
<rect width="35" height="35" fill="#D9D9D9"/>
</mask>
<g mask="url(#mask0_846_292)">
<path d="M4 15.6967C7.5 15 10 13 11.5351 12.1941C13.0702 11.3883 15.9622 10.3639 18.3377 12.5713V12.5713C20.142 14.248 20.2155 16.9355 20.2983 19.3972C20.3846 21.9649 20.576 25.305 21 27.5M24.6543 20.2769V20.2769C24.386 20.2769 24.1684 20.0593 24.1684 19.791V17.3671C25.0322 16.3756 25.4281 15.3374 25.5181 14.9423H27.7317C27.7317 15.5458 28.7394 16.8103 29.2433 17.3671V19.629C29.2433 19.9868 28.9533 20.2769 28.5955 20.2769V20.2769M24.6543 20.2769C23.5313 20.708 23.3586 22.1449 23.4126 22.8095C23.4126 24.6775 23.4126 28.6722 23.4126 29.7068C23.4126 30.7414 24.2404 31 24.6543 31C25.5181 31 27.5265 31 28.6495 31C29.7724 31 30.0172 30.1378 29.9992 29.7068C29.9992 28.0184 29.9992 24.2752 29.9992 22.8095C29.9992 21.3438 29.0634 20.5104 28.5955 20.2769M24.6543 20.2769H28.5955M23.6285 8.96105C24.6363 8.512 26.7167 7.58159 26.9758 7.45227C27.2997 7.29061 28.0016 6.32068 27.0838 5.40464V5.40464C26.0998 4.42252 24.9056 6.06027 24.3454 7.33268L23.6285 8.96105ZM23.6285 8.96105L16.502 16.0739M16.502 16.0739L15.6086 18.0725C15.1617 19.0722 14.5043 20.4452 13.4787 20.0614V20.0614C12.6149 19.738 12.237 18.8759 12.5069 18.1754C12.7768 17.4749 14.4505 16.7205 16.502 16.0739ZM9.26759 19.5764C10.3682 20.3205 13.2059 22.4908 15.853 25.2804C15.9254 25.3567 16.008 25.4237 16.1046 25.4653C16.6984 25.7216 17.7068 25.7734 17.9057 24.2644C18.1182 22.6527 17.6592 18.8522 17.5073 16.6089C17.5023 16.5357 17.4905 16.4647 17.4669 16.3953C17.1671 15.5167 16.157 14.0756 14.2068 14.614C12.2087 15.1656 9.89933 16.8461 8.83189 18.1149C8.79785 18.1554 8.76709 18.1977 8.74634 18.2463C8.62604 18.5283 8.59572 19.0937 9.26759 19.5764Z" stroke="#828282" stroke-width="1.5" stroke-linecap="round" stroke-linejoin="round"/>
</g>
</svg>
