<svg width="35" height="35" viewBox="0 0 35 35" fill="none" xmlns="http://www.w3.org/2000/svg">
<mask id="mask0_846_245" style="mask-type:alpha" maskUnits="userSpaceOnUse" x="0" y="0" width="35" height="35">
<rect x="0.75" y="0.75" width="33.5" height="33.5" fill="#D9D9D9" stroke="#828282" stroke-width="1.5"/>
</mask>
<g mask="url(#mask0_846_245)">
<path d="M12.6667 13.9598C13.6959 13.1654 13.5556 13.1653 15.3333 11.9358C17.1111 10.7063 18.2438 10.6699 20.0846 11.9358C21.7895 13.1083 22 13.1653 23.0526 13.9598M28.8279 16.778L30.1473 21.5962C30.1889 21.748 30.2657 21.8879 30.3715 22.0044L32.4814 24.3277C33.0648 24.9702 32.609 26 31.7411 26H4.25893C3.39104 26 2.93517 24.9702 3.51864 24.3277L5.66201 21.9675C5.74624 21.8748 5.81228 21.767 5.85671 21.6499L7.73893 16.6874C7.88628 16.299 8.25847 16.0421 8.67394 16.0421H27.8634C28.314 16.0421 28.7089 16.3434 28.8279 16.778Z" stroke="#828282" stroke-width="1.5" stroke-linecap="round" stroke-linejoin="round"/>
</g>
</svg>
