<svg width="35" height="35" viewBox="0 0 35 35" fill="none" xmlns="http://www.w3.org/2000/svg">
<mask id="mask0_846_298" style="mask-type:alpha" maskUnits="userSpaceOnUse" x="0" y="0" width="35" height="35">
<rect width="35" height="35" fill="#D9D9D9"/>
</mask>
<g mask="url(#mask0_846_298)">
</g>
<path d="M16.8889 8C15.6616 8 14.6667 8.99492 14.6667 10.2222V14.6667H10.2222C8.99492 14.6667 8 15.6616 8 16.8889V19.1111C8 20.3384 8.99492 21.3333 10.2222 21.3333H14.6667V25.7778C14.6667 27.0051 15.6616 28 16.8889 28H19.1111C20.3384 28 21.3333 27.0051 21.3333 25.7778V21.3333H25.7778C27.0051 21.3333 28 20.3384 28 19.1111V16.8889C28 15.6616 27.0051 14.6667 25.7778 14.6667H21.3333V10.2222C21.3333 8.99492 20.3384 8 19.1111 8H16.8889Z" stroke="black" stroke-opacity="0.46" stroke-width="1.5" stroke-linecap="round" stroke-linejoin="round"/>
</svg>
