<svg width="24" height="24" viewBox="0 0 24 24" fill="none" xmlns="http://www.w3.org/2000/svg">
<path d="M10.8889 2C9.66159 2 8.66667 2.99492 8.66667 4.22222V8.66667H4.22222C2.99492 8.66667 2 9.66159 2 10.8889V13.1111C2 14.3384 2.99492 15.3333 4.22222 15.3333H8.66667V19.7778C8.66667 21.0051 9.66159 22 10.8889 22H13.1111C14.3384 22 15.3333 21.0051 15.3333 19.7778V15.3333H19.7778C21.0051 15.3333 22 14.3384 22 13.1111V10.8889C22 9.66159 21.0051 8.66667 19.7778 8.66667H15.3333V4.22222C15.3333 2.99492 14.3384 2 13.1111 2H10.8889Z" stroke="black" stroke-opacity="0.46" stroke-width="1.5" stroke-linecap="round" stroke-linejoin="round"/>
</svg>
