<svg width="22" height="22" viewBox="0 0 22 22" fill="none" xmlns="http://www.w3.org/2000/svg">
<path d="M4.24717 17.7365L1 20.9837M4.24717 17.7365L5.66226 19.1619C6.10105 19.6038 6.81246 19.6038 7.25125 19.1619L19.2783 7.39791M4.24717 17.7365L2.63946 16.1172C2.20067 15.6752 2.20067 14.9586 2.63946 14.5166L4.94627 12.2004M19.7727 2.23619L16.9632 5.06602M19.7727 2.23619L18.5454 1M19.7727 2.23619L21 3.47239M16.9632 5.06602L19.2783 7.39791M16.9632 5.06602L14.5114 2.59636M10.0118 10.5L8.32235 8.81059M8.32235 8.81059L11.6984 5.42074M8.32235 8.81059L4.94627 12.2004M14.5114 2.59636L13.593 1.6713M14.5114 2.59636L11.6984 5.42074M19.2783 7.39791L20.1793 8.3054M6.59877 13.8529L4.94627 12.2004M13.4248 7.14706L11.6984 5.42074" stroke="#828282" stroke-width="1.5" stroke-linecap="round" stroke-linejoin="round"/>
</svg>
