<svg width="35" height="35" viewBox="0 0 35 35" fill="none" xmlns="http://www.w3.org/2000/svg">
<mask id="mask0_846_297" style="mask-type:alpha" maskUnits="userSpaceOnUse" x="0" y="0" width="35" height="35">
<rect width="35" height="35" fill="#D9D9D9"/>
</mask>
<g mask="url(#mask0_846_297)">
<path d="M11.2472 24.7365L8 27.9837M11.2472 24.7365L12.6623 26.1619C13.101 26.6038 13.8125 26.6038 14.2513 26.1619L26.2783 14.3979M11.2472 24.7365L9.63946 23.1172C9.20067 22.6752 9.20067 21.9586 9.63946 21.5166L11.9463 19.2004M26.7727 9.23619L23.9632 12.066M26.7727 9.23619L25.5454 8M26.7727 9.23619L28 10.4724M23.9632 12.066L26.2783 14.3979M23.9632 12.066L21.5114 9.59636M17.0118 17.5L15.3224 15.8106M15.3224 15.8106L18.6984 12.4207M15.3224 15.8106L11.9463 19.2004M21.5114 9.59636L20.593 8.6713M21.5114 9.59636L18.6984 12.4207M26.2783 14.3979L27.1793 15.3054M13.5988 20.8529L11.9463 19.2004M20.4248 14.1471L18.6984 12.4207" stroke="#828282" stroke-width="1.5" stroke-linecap="round" stroke-linejoin="round"/>
</g>
</svg>
