<svg width="35" height="35" viewBox="0 0 35 35" fill="none" xmlns="http://www.w3.org/2000/svg">
<mask id="mask0_846_296" style="mask-type:alpha" maskUnits="userSpaceOnUse" x="0" y="0" width="35" height="35">
<rect width="35" height="35" fill="#D9D9D9"/>
</mask>
<g mask="url(#mask0_846_296)">
<path d="M26.7295 16.7861C27.7335 16.8708 28.7666 16.5285 29.5349 15.7591C30.9189 14.3731 30.9189 12.1258 29.5349 10.7398C28.7051 9.90886 27.4693 9.67332 26.6124 9.61794C25.8527 9.61794 25.4321 9.16503 25.4321 8.43595C25.3768 7.57782 25.1416 6.34018 24.3119 5.50927C22.9278 4.12321 20.6838 4.12321 19.2997 5.50927C18.5315 6.27861 18.1897 7.31326 18.2743 8.3187C18.3894 9.6877 18.5133 11.3162 17.5433 12.2876L11.8066 18.0325C10.8366 19.004 9.21047 18.8799 7.84344 18.7645C6.83945 18.6798 5.80628 19.0221 5.03805 19.7915C3.65398 21.1775 3.65398 23.4248 5.03805 24.8108C5.86776 25.6418 7.10362 25.8773 7.96052 25.9327C8.77193 25.9327 9.14082 26.4239 9.14082 27.1147C9.19612 27.9728 9.43132 29.2104 10.261 30.0413C11.6451 31.4274 13.8891 31.4274 15.2732 30.0413C16.0414 29.272 16.3832 28.2374 16.2986 27.2319C16.1835 25.8629 16.0596 24.2345 17.0296 23.263L22.7663 17.5181C23.7363 16.5467 25.3624 16.6707 26.7295 16.7861Z" stroke="#828282" stroke-width="1.5" stroke-linecap="round" stroke-linejoin="round"/>
</g>
</svg>
