<svg width="29" height="29" viewBox="0 0 29 29" fill="none" xmlns="http://www.w3.org/2000/svg">
<path d="M23.7295 13.7861C24.7335 13.8708 25.7666 13.5285 26.5349 12.7591C27.9189 11.3731 27.9189 9.12583 26.5349 7.73977C25.7051 6.90886 24.4693 6.67332 23.6124 6.61794C22.8527 6.61794 22.4321 6.16503 22.4321 5.43595C22.3768 4.57782 22.1416 3.34018 21.3119 2.50927C19.9278 1.12321 17.6838 1.12321 16.2997 2.50927C15.5315 3.27861 15.1897 4.31326 15.2743 5.3187C15.3894 6.6877 15.5133 8.31616 14.5433 9.28762L8.80665 15.0325C7.83658 16.004 6.21047 15.8799 4.84344 15.7645C3.83945 15.6798 2.80628 16.0221 2.03805 16.7915C0.653984 18.1775 0.653984 20.4248 2.03805 21.8108C2.86776 22.6418 4.10362 22.8773 4.96052 22.9327C5.77193 22.9327 6.14082 23.4239 6.14082 24.1147C6.19612 24.9728 6.43132 26.2104 7.26103 27.0413C8.64509 28.4274 10.8891 28.4274 12.2732 27.0413C13.0414 26.272 13.3832 25.2374 13.2986 24.2319C13.1835 22.8629 13.0596 21.2345 14.0296 20.263L19.7663 14.5181C20.7363 13.5467 22.3624 13.6707 23.7295 13.7861Z" stroke="#828282" stroke-width="1.5" stroke-linecap="round" stroke-linejoin="round"/>
</svg>
