<svg width="35" height="35" viewBox="0 0 35 35" fill="none" xmlns="http://www.w3.org/2000/svg">
<mask id="mask0_846_295" style="mask-type:alpha" maskUnits="userSpaceOnUse" x="0" y="0" width="35" height="35">
<rect width="35" height="35" fill="#D9D9D9"/>
</mask>
<g mask="url(#mask0_846_295)">
<path d="M10.9287 10.0432C9.54311 9.55181 6.48689 9.3855 5.34674 12.6512C3.92156 16.7333 7.36575 18.2075 7.12822 21.9494C6.89436 25.6335 9.30835 31.516 10.8565 27.6929C10.9046 27.574 10.9264 27.4408 10.9238 27.3126C10.8963 25.9611 10.9796 23.4074 11.5225 22.6298C12.2351 21.6092 13.5415 18.8878 14.8479 23.4235C15.0459 24.2929 15.418 26.3264 15.323 27.5056C15.2042 28.9797 16.9857 30.2271 18.4109 26.8253C19.8361 23.4235 18.4109 20.8155 19.5985 19.228M14.8479 7.54854C13.5388 7.58326 11.4681 8.18566 12.7596 10.2521C12.9878 10.6173 13.0185 11.0792 12.8627 11.4807C12.5573 12.2683 12.4808 13.2651 13.3834 13.8008C13.8736 14.0918 14.2447 14.6226 14.4447 15.1564C14.6171 15.617 15.0185 16.0234 15.8245 16.0969C16.3453 16.1444 16.8255 16.465 17.1221 16.8955C17.4915 17.4317 18.1208 17.8506 19.0736 17.5343C19.4113 17.4222 19.7831 17.4216 20.1128 17.5552C21.1278 17.9667 22.5651 18.0402 22.8052 16.053M16.7482 8.45568L14.8479 10.0432M18.0546 9.703L16.1544 11.5173M19.5985 10.8369L17.2232 13.1048M20.7862 12.1976L18.4109 14.4655M22.2114 13.5584L20.5487 15.1458M29.0998 23.4235L24.943 14.9191C24.7846 14.5033 24.1354 13.3542 22.8052 12.0842C21.475 10.8143 19.3214 8.83366 18.4109 8.00211C18.015 7.66194 17.3895 6.82283 18.0546 6.18783C18.7197 5.55283 19.9944 6.6792 20.5487 7.32176L24.2304 10.8369C24.8242 11.4039 26.3682 13.2635 27.7933 16.1664C29.2185 19.0692 30.5249 21.6848 31 22.6298" stroke="#828282" stroke-width="1.5" stroke-linecap="round" stroke-linejoin="round"/>
</g>
</svg>
