<svg width="28" height="25" viewBox="0 0 28 25" fill="none" xmlns="http://www.w3.org/2000/svg">
<path d="M6.9287 5.04318C5.54311 4.55181 2.48689 4.3855 1.34674 7.65121C-0.0784406 11.7333 3.36575 13.2075 3.12822 16.9494C2.89436 20.6335 5.30835 26.516 6.85647 22.6929C6.90459 22.574 6.92641 22.4408 6.9238 22.3126C6.89628 20.9611 6.97955 18.4074 7.52251 17.6298C8.23511 16.6092 9.54152 13.8878 10.8479 18.4235C11.0459 19.2929 11.418 21.3264 11.323 22.5056C11.2042 23.9797 12.9857 25.2271 14.4109 21.8253C15.8361 18.4235 14.4109 15.8155 15.5985 14.228M10.8479 2.54854C9.53882 2.58326 7.46812 3.18566 8.75957 5.25214C8.9878 5.61734 9.01846 6.07923 8.86274 6.48073C8.55727 7.26831 8.4808 8.2651 9.3834 8.80081C9.87362 9.09177 10.2447 9.62258 10.4447 10.1564C10.6171 10.617 11.0185 11.0234 11.8245 11.0969C12.3453 11.1444 12.8255 11.465 13.1221 11.8955C13.4915 12.4317 14.1208 12.8506 15.0736 12.5343C15.4113 12.4222 15.7831 12.4216 16.1128 12.5552C17.1278 12.9667 18.5651 13.0402 18.8052 11.053M12.7482 3.45568L10.8479 5.04318M14.0546 4.703L12.1544 6.51729M15.5985 5.83693L13.2232 8.10478M16.7862 7.19764L14.4109 9.46549M18.2114 8.55835L16.5487 10.1458M25.0998 18.4235L20.943 9.91906C20.7846 9.50329 20.1354 8.35425 18.8052 7.08425C17.475 5.81425 15.3214 3.83366 14.4109 3.00211C14.015 2.66194 13.3895 1.82283 14.0546 1.18783C14.7197 0.552834 15.9944 1.6792 16.5487 2.32176L20.2304 5.83693C20.8242 6.40389 22.3682 8.26353 23.7933 11.1664C25.2185 14.0692 26.5249 16.6848 27 17.6298" stroke="#828282" stroke-width="1.5" stroke-linecap="round" stroke-linejoin="round"/>
</svg>
