<svg width="24" height="23" viewBox="0 0 24 23" fill="none" xmlns="http://www.w3.org/2000/svg">
<path fill-rule="evenodd" clip-rule="evenodd" d="M4.45307 3.61591C4.19024 3.93732 4.125 4.16825 4.125 4.22627C4.125 4.5175 3.94157 4.7771 3.66712 4.87431C3.24658 5.02336 2.55606 5.26172 1.97315 5.46192C1.78275 5.52737 1.60346 5.58883 1.44828 5.64197C1.49528 5.88721 1.56753 6.18317 1.67548 6.47282C1.94741 7.20246 2.30556 7.56271 2.75 7.56271C3.66719 7.56271 4.51454 7.50152 5.11864 7.24715C5.4067 7.12581 5.6058 6.9738 5.7354 6.79223C5.86155 6.61547 5.95835 6.36014 5.95835 5.96441H7.33335C7.33335 6.59994 7.17227 7.14595 6.85444 7.59118C6.72588 7.7713 6.57772 7.92633 6.41637 8.05984C6.41169 9.10306 6.36054 9.97728 6.31805 10.7042C6.31345 10.7834 6.30891 10.8609 6.30451 10.9365C6.25714 11.7611 6.2348 12.3326 6.29585 12.7827C6.35236 13.1991 6.47487 13.4649 6.70189 13.6949C6.95275 13.9491 7.38024 14.2093 8.14907 14.4994C8.41665 14.6004 8.59375 14.8566 8.59375 15.1426C8.59375 15.9542 8.68429 16.619 8.76597 17.2195C8.80598 17.5131 8.84386 17.7913 8.86799 18.0638C8.8992 18.4156 8.91887 18.868 8.74555 19.2442C8.64593 19.4604 8.48361 19.6521 8.24869 19.7796C8.02594 19.9004 7.78532 19.9377 7.5625 19.9377C7.5306 19.9377 7.42514 19.9591 7.25725 20.0996C7.09816 20.2329 6.94258 20.4251 6.82433 20.6279L6.8233 20.6297C7.1181 20.6336 7.39158 20.6396 7.64128 20.645C7.82313 20.649 7.99232 20.6526 8.14797 20.6551C8.68574 20.6635 9.04599 20.6562 9.29926 20.6148C9.42026 20.595 9.48983 20.5713 9.52785 20.5532C9.54566 20.5447 9.5548 20.5383 9.55865 20.5354C9.56216 20.5327 9.56422 20.5301 9.56422 20.5301C9.56567 20.5283 9.625 20.4526 9.625 20.1262V15.8301C9.625 15.5337 9.81495 15.2708 10.0963 15.1775L15.8254 13.2791C16.1406 13.1746 16.4855 13.3104 16.6449 13.6017C16.8697 14.0127 17.0657 14.3897 17.2373 14.7196C17.3332 14.9037 17.4213 15.0732 17.5026 15.2259C17.7383 15.6682 17.9349 16.0057 18.1597 16.3041C18.5924 16.8785 19.1779 17.3731 20.4982 18.1C20.6638 18.1912 20.7846 18.3465 20.8321 18.5294C20.9351 18.9261 20.954 19.3095 20.7811 19.6624C20.6497 19.9303 20.4187 20.1212 20.3164 20.2056C20.3031 20.2166 20.292 20.2258 20.2835 20.2331C20.1798 20.3232 20.1167 20.3896 20.0637 20.5037C20.0487 20.5362 20.033 20.5761 20.0179 20.6252H21.5417V17.6662L19.3129 12.8194L20.5622 12.245L21.969 15.3043C22.0571 14.6449 22.1156 13.8949 22.0865 13.1524C22.0456 12.1095 21.835 11.1652 21.3737 10.4983C20.9434 9.87622 20.2469 9.42274 19.0209 9.42274C18.4668 9.42274 17.9206 9.42976 17.3898 9.43656C16.5852 9.44687 15.8159 9.45677 15.1082 9.4411C13.9163 9.41463 12.7966 9.31646 11.7714 9.00791C10.7324 8.69523 9.79893 8.16943 8.97861 7.30676C8.16571 6.45192 7.49017 5.29417 6.91804 3.75376C6.675 3.09946 6.38543 2.87547 6.18633 2.79834C5.9774 2.71749 5.70013 2.73289 5.36154 2.89129C5.02425 3.049 4.695 3.32008 4.45307 3.61591ZM22.9167 17.6082V21.3127C22.9167 21.6924 22.6088 22.0002 22.2292 22.0002H19.25C18.8703 22.0002 18.5625 21.6924 18.5625 21.3127C18.5625 20.7304 18.6504 20.2835 18.8163 19.9255C18.9871 19.5568 19.2155 19.3394 19.3825 19.1945C19.4261 19.1566 19.4589 19.128 19.4833 19.1067C18.3019 18.4268 17.6082 17.8573 17.0615 17.1315C16.7705 16.7452 16.5335 16.3312 16.2891 15.8724C16.195 15.6957 16.1019 15.5165 16.0039 15.3281C15.9117 15.1508 15.8152 14.9653 15.7097 14.7659L11 16.3265V20.1262C11 20.5649 10.9305 21.02 10.6418 21.3842C10.3432 21.761 9.91794 21.9069 9.52105 21.9718C9.12979 22.0358 8.65218 22.0382 8.12645 22.0299C7.95664 22.0273 7.7794 22.0234 7.59282 22.0193C7.17798 22.0103 6.71674 22.0002 6.1875 22.0002C5.90555 22.0002 5.6069 21.8785 5.42547 21.5909C5.27519 21.3527 5.26859 21.0965 5.2822 20.9333C5.31032 20.5958 5.46136 20.2355 5.6366 19.935C5.81914 19.6222 6.07179 19.2988 6.37457 19.0453C6.65816 18.8079 7.04962 18.5796 7.51087 18.5636L7.511 18.5615C7.5165 18.4712 7.513 18.3495 7.49842 18.1853C7.48295 18.0115 7.45332 17.7911 7.41895 17.5352C7.34848 17.011 7.258 16.3378 7.22851 15.6111C6.60027 15.3416 6.09847 15.041 5.72323 14.6608C5.24136 14.1725 5.02006 13.6072 4.93336 12.9675C4.85114 12.3615 4.88613 11.6518 4.93178 10.8576C4.93618 10.7814 4.94072 10.704 4.94532 10.6252C4.97805 10.0644 5.01476 9.4367 5.03188 8.71881C4.28484 8.90726 3.46177 8.93771 2.75 8.93771C1.36113 8.93771 0.688028 7.76057 0.387048 6.95297C0.224268 6.5162 0.129221 6.08768 0.0746339 5.77377C0.0470789 5.6153 0.0292176 5.48247 0.0181076 5.38767C0.0125457 5.34016 0.00865454 5.30201 0.00607642 5.27471L0.00314762 5.24206L0.00233626 5.23209L0.00208186 5.22879L0.00198581 5.22762C0.00198581 5.22762 0.001917 5.22666 0.687513 5.17557L0.465533 4.52486L0.77741 4.41829C0.969869 4.35243 1.23514 4.26161 1.52641 4.16151C1.95842 4.01315 2.44572 3.84512 2.83738 3.70838C2.95199 3.35459 3.16477 3.01923 3.38876 2.7454C3.74117 2.31447 4.2284 1.90328 4.77909 1.64574C5.32854 1.38876 6.01088 1.2559 6.68284 1.51615C7.36457 1.78015 7.8771 2.38673 8.20703 3.27498C8.73661 4.70099 9.32814 5.67896 9.975 6.35924C10.6145 7.03176 11.3337 7.44027 12.1676 7.69127C13.0155 7.94634 13.9892 8.04094 15.1386 8.06644C15.8309 8.08177 16.5509 8.07229 17.3293 8.06211C17.8624 8.0551 18.4229 8.04774 19.0209 8.04774C20.6593 8.04774 21.7962 8.69179 22.5046 9.7161C23.1819 10.6955 23.4153 11.9463 23.4605 13.0986C23.506 14.264 23.3619 15.4151 23.2103 16.2645C23.1342 16.6917 23.0551 17.0481 22.9947 17.2992C22.9646 17.4248 22.9389 17.5244 22.9206 17.5935C22.9193 17.5985 22.9179 17.6034 22.9167 17.6082ZM0.687513 5.17557L0.465533 4.52486C0.169248 4.62599 -0.0213549 4.91446 0.00191697 5.22666L0.687513 5.17557Z" fill="#828282"/>
<path fill-rule="evenodd" clip-rule="evenodd" d="M22.4861 0.201362C22.7547 0.469851 22.7547 0.905149 22.4861 1.17364L11.8299 11.8299C11.701 11.9588 11.5261 12.0312 11.3438 12.0312H6.1875C5.80779 12.0312 5.5 11.7235 5.5 11.3438C5.5 10.964 5.80779 10.6562 6.1875 10.6562H11.059L21.5139 0.201362C21.7823 -0.0671206 22.2177 -0.0671206 22.4861 0.201362Z" fill="#828282"/>
<path fill-rule="evenodd" clip-rule="evenodd" d="M10.6562 15.4688V11H12.0312V15.4688H10.6562Z" fill="#828282"/>
</svg>
