<svg width="35" height="35" viewBox="0 0 35 35" fill="none" xmlns="http://www.w3.org/2000/svg">
<mask id="mask0_846_300" style="mask-type:alpha" maskUnits="userSpaceOnUse" x="0" y="0" width="35" height="35">
<rect width="35" height="35" fill="#D9D9D9"/>
</mask>
<g mask="url(#mask0_846_300)">
<path fill-rule="evenodd" clip-rule="evenodd" d="M10.4531 9.61591C10.1902 9.93732 10.125 10.1682 10.125 10.2263C10.125 10.5175 9.94157 10.7771 9.66712 10.8743C9.24658 11.0234 8.55606 11.2617 7.97315 11.4619C7.78275 11.5274 7.60346 11.5888 7.44828 11.642C7.49528 11.8872 7.56753 12.1832 7.67548 12.4728C7.94741 13.2025 8.30556 13.5627 8.75 13.5627C9.66719 13.5627 10.5145 13.5015 11.1186 13.2471C11.4067 13.1258 11.6058 12.9738 11.7354 12.7922C11.8616 12.6155 11.9584 12.3601 11.9584 11.9644H13.3334C13.3334 12.5999 13.1723 13.1459 12.8544 13.5912C12.7259 13.7713 12.5777 13.9263 12.4164 14.0598C12.4117 15.1031 12.3605 15.9773 12.3181 16.7042C12.3134 16.7834 12.3089 16.8609 12.3045 16.9365C12.2571 17.7611 12.2348 18.3326 12.2958 18.7827C12.3524 19.1991 12.4749 19.4649 12.7019 19.6949C12.9528 19.9491 13.3802 20.2093 14.1491 20.4994C14.4166 20.6004 14.5937 20.8566 14.5937 21.1426C14.5937 21.9542 14.6843 22.619 14.766 23.2195C14.806 23.5131 14.8439 23.7913 14.868 24.0638C14.8992 24.4156 14.9189 24.868 14.7455 25.2442C14.6459 25.4604 14.4836 25.6521 14.2487 25.7796C14.0259 25.9004 13.7853 25.9377 13.5625 25.9377C13.5306 25.9377 13.4251 25.9591 13.2572 26.0996C13.0982 26.2329 12.9426 26.4251 12.8243 26.6279L12.8233 26.6297C13.1181 26.6336 13.3916 26.6396 13.6413 26.645C13.8231 26.649 13.9923 26.6526 14.148 26.6551C14.6857 26.6635 15.046 26.6562 15.2993 26.6148C15.4203 26.595 15.4898 26.5713 15.5279 26.5532C15.5457 26.5447 15.5548 26.5383 15.5587 26.5354C15.5622 26.5327 15.5642 26.5301 15.5642 26.5301C15.5657 26.5283 15.625 26.4526 15.625 26.1262V21.8301C15.625 21.5337 15.815 21.2708 16.0963 21.1775L21.8254 19.2791C22.1406 19.1746 22.4855 19.3104 22.6449 19.6017C22.8697 20.0127 23.0657 20.3897 23.2373 20.7196C23.3332 20.9037 23.4213 21.0732 23.5026 21.2259C23.7383 21.6682 23.9349 22.0057 24.1597 22.3041C24.5924 22.8785 25.1779 23.3731 26.4982 24.1C26.6638 24.1912 26.7846 24.3465 26.8321 24.5294C26.9351 24.9261 26.954 25.3095 26.7811 25.6624C26.6497 25.9303 26.4187 26.1212 26.3164 26.2056C26.3031 26.2166 26.292 26.2258 26.2835 26.2331C26.1798 26.3232 26.1167 26.3896 26.0637 26.5037C26.0487 26.5362 26.033 26.5761 26.0179 26.6252H27.5417V23.6662L25.3129 18.8194L26.5622 18.245L27.969 21.3043C28.0571 20.6449 28.1156 19.8949 28.0865 19.1524C28.0456 18.1095 27.835 17.1652 27.3737 16.4983C26.9434 15.8762 26.2469 15.4227 25.0209 15.4227C24.4668 15.4227 23.9206 15.4298 23.3898 15.4366C22.5852 15.4469 21.8159 15.4568 21.1082 15.4411C19.9163 15.4146 18.7966 15.3165 17.7714 15.0079C16.7324 14.6952 15.7989 14.1694 14.9786 13.3068C14.1657 12.4519 13.4902 11.2942 12.918 9.75376C12.675 9.09946 12.3854 8.87547 12.1863 8.79834C11.9774 8.71749 11.7001 8.73289 11.3615 8.89129C11.0242 9.049 10.695 9.32008 10.4531 9.61591ZM28.9167 23.6082V27.3127C28.9167 27.6924 28.6088 28.0002 28.2292 28.0002H25.25C24.8703 28.0002 24.5625 27.6924 24.5625 27.3127C24.5625 26.7304 24.6504 26.2835 24.8163 25.9255C24.9871 25.5568 25.2155 25.3394 25.3825 25.1945C25.4261 25.1566 25.4589 25.128 25.4833 25.1067C24.3019 24.4268 23.6082 23.8573 23.0615 23.1315C22.7705 22.7452 22.5335 22.3312 22.2891 21.8724C22.195 21.6957 22.1019 21.5165 22.0039 21.3281C21.9117 21.1508 21.8152 20.9653 21.7097 20.7659L17 22.3265V26.1262C17 26.5649 16.9305 27.02 16.6418 27.3842C16.3432 27.761 15.9179 27.9069 15.521 27.9718C15.1298 28.0358 14.6522 28.0382 14.1265 28.0299C13.9566 28.0273 13.7794 28.0234 13.5928 28.0193C13.178 28.0103 12.7167 28.0002 12.1875 28.0002C11.9056 28.0002 11.6069 27.8785 11.4255 27.5909C11.2752 27.3527 11.2686 27.0965 11.2822 26.9333C11.3103 26.5958 11.4614 26.2355 11.6366 25.935C11.8191 25.6222 12.0718 25.2988 12.3746 25.0453C12.6582 24.8079 13.0496 24.5796 13.5109 24.5636L13.511 24.5615C13.5165 24.4712 13.513 24.3495 13.4984 24.1853C13.483 24.0115 13.4533 23.7911 13.4189 23.5352C13.3485 23.011 13.258 22.3378 13.2285 21.6111C12.6003 21.3416 12.0985 21.041 11.7232 20.6608C11.2414 20.1725 11.0201 19.6072 10.9334 18.9675C10.8511 18.3615 10.8861 17.6518 10.9318 16.8576C10.9362 16.7814 10.9407 16.704 10.9453 16.6252C10.978 16.0644 11.0148 15.4367 11.0319 14.7188C10.2848 14.9073 9.46177 14.9377 8.75 14.9377C7.36113 14.9377 6.68803 13.7606 6.38705 12.953C6.22427 12.5162 6.12922 12.0877 6.07463 11.7738C6.04708 11.6153 6.02922 11.4825 6.01811 11.3877C6.01255 11.3402 6.00865 11.302 6.00608 11.2747L6.00315 11.2421L6.00234 11.2321L6.00208 11.2288L6.00199 11.2276C6.00199 11.2276 6.00192 11.2267 6.68751 11.1756L6.46553 10.5249L6.77741 10.4183C6.96987 10.3524 7.23514 10.2616 7.52641 10.1615C7.95842 10.0131 8.44572 9.84512 8.83738 9.70838C8.95199 9.35459 9.16477 9.01923 9.38876 8.7454C9.74117 8.31447 10.2284 7.90328 10.7791 7.64574C11.3285 7.38876 12.0109 7.2559 12.6828 7.51615C13.3646 7.78015 13.8771 8.38673 14.207 9.27498C14.7366 10.701 15.3281 11.679 15.975 12.3592C16.6145 13.0318 17.3337 13.4403 18.1676 13.6913C19.0155 13.9463 19.9892 14.0409 21.1386 14.0664C21.8309 14.0818 22.5509 14.0723 23.3293 14.0621C23.8624 14.0551 24.4229 14.0477 25.0209 14.0477C26.6593 14.0477 27.7962 14.6918 28.5046 15.7161C29.1819 16.6955 29.4153 17.9463 29.4605 19.0986C29.506 20.264 29.3619 21.4151 29.2103 22.2645C29.1342 22.6917 29.0551 23.0481 28.9947 23.2992C28.9646 23.4248 28.9389 23.5244 28.9206 23.5935C28.9193 23.5985 28.9179 23.6034 28.9167 23.6082ZM6.68751 11.1756L6.46553 10.5249C6.16925 10.626 5.97865 10.9145 6.00192 11.2267L6.68751 11.1756Z" fill="#828282"/>
<path fill-rule="evenodd" clip-rule="evenodd" d="M28.4861 6.20136C28.7547 6.46985 28.7547 6.90515 28.4861 7.17364L17.8299 17.8299C17.701 17.9588 17.5261 18.0312 17.3438 18.0312H12.1875C11.8078 18.0312 11.5 17.7235 11.5 17.3438C11.5 16.964 11.8078 16.6562 12.1875 16.6562H17.059L27.5139 6.20136C27.7823 5.93288 28.2177 5.93288 28.4861 6.20136Z" fill="#828282"/>
<path fill-rule="evenodd" clip-rule="evenodd" d="M16.6562 21.4688V17H18.0312V21.4688H16.6562Z" fill="#828282"/>
</g>
</svg>
