<svg width="35" height="35" viewBox="0 0 35 35" fill="none" xmlns="http://www.w3.org/2000/svg">
<mask id="mask0_846_301" style="mask-type:alpha" maskUnits="userSpaceOnUse" x="0" y="0" width="35" height="35">
<rect width="35" height="35" fill="#D9D9D9"/>
</mask>
<g mask="url(#mask0_846_301)">
<path d="M5.85671 25.6078L7.73893 20.6454C7.88628 20.2569 8.25847 20 8.67394 20H27.8634C28.314 20 28.7089 20.3013 28.8279 20.7359L30.1473 25.5541C30.1889 25.7059 30.2657 25.8458 30.3715 25.9623L32.4814 28.2856C33.0648 28.9281 32.609 29.9579 31.7411 29.9579H4.25893C3.39104 29.9579 2.93517 28.9281 3.51864 28.2856L5.66201 25.9254C5.74624 25.8327 5.81228 25.7249 5.85671 25.6078Z" stroke="#828282" stroke-width="1.5" stroke-linecap="round" stroke-linejoin="round"/>
<path d="M21.3835 11.2019L20.7176 11.5469L20.7324 11.5755L20.7496 11.6027L21.3835 11.2019ZM14.72 11.0463L15.3346 11.4762L15.358 11.4428L15.3776 11.4071L14.72 11.0463ZM18.9685 6.54003L18.3026 6.88501L18.9685 6.54003ZM18.3026 6.88501L20.7176 11.5469L22.0495 10.8569L19.6345 6.19504L18.3026 6.88501ZM15.3776 11.4071L17.8614 6.87975L16.5463 6.15825L14.0625 10.6856L15.3776 11.4071ZM14.75 13.3364C14.75 12.6433 14.9661 12.003 15.3346 11.4762L14.1055 10.6164C13.5664 11.3871 13.25 12.3259 13.25 13.3364H14.75ZM18 16.5864C16.2051 16.5864 14.75 15.1313 14.75 13.3364H13.25C13.25 15.9597 15.3766 18.0864 18 18.0864V16.5864ZM21.25 13.3364C21.25 15.1313 19.7949 16.5864 18 16.5864V18.0864C20.6234 18.0864 22.75 15.9597 22.75 13.3364H21.25ZM20.7496 11.6027C21.0665 12.104 21.25 12.6976 21.25 13.3364H22.75C22.75 12.4056 22.4815 11.5352 22.0175 10.8012L20.7496 11.6027ZM19.6345 6.19504C18.9904 4.95183 17.2198 4.93074 16.5463 6.15825L17.8614 6.87975C17.9576 6.70439 18.2106 6.70741 18.3026 6.88501L19.6345 6.19504Z" fill="#828282"/>
</g>
</svg>
