<svg width="32" height="26" viewBox="0 0 32 26" fill="none" xmlns="http://www.w3.org/2000/svg">
<path d="M3.85671 20.6078L5.73893 15.6454C5.88628 15.2569 6.25847 15 6.67394 15H25.8634C26.314 15 26.7089 15.3013 26.8279 15.7359L28.1473 20.5541C28.1889 20.7059 28.2657 20.8458 28.3715 20.9623L30.4814 23.2856C31.0648 23.9281 30.609 24.9579 29.7411 24.9579H2.25893C1.39104 24.9579 0.93517 23.9281 1.51864 23.2856L3.66201 20.9254C3.74624 20.8327 3.81228 20.7249 3.85671 20.6078Z" stroke="#828282" stroke-width="1.5" stroke-linecap="round" stroke-linejoin="round"/>
<path d="M19.3835 6.20193L18.7176 6.54691L18.7324 6.57549L18.7496 6.60269L19.3835 6.20193ZM12.72 6.0463L13.3346 6.47619L13.358 6.44279L13.3776 6.40705L12.72 6.0463ZM16.9685 1.54003L16.3026 1.88501L16.9685 1.54003ZM16.3026 1.88501L18.7176 6.54691L20.0495 5.85695L17.6345 1.19504L16.3026 1.88501ZM13.3776 6.40705L15.8614 1.87975L14.5463 1.15825L12.0625 5.68555L13.3776 6.40705ZM12.75 8.33639C12.75 7.64334 12.9661 7.003 13.3346 6.47619L12.1055 5.61641C11.5664 6.38707 11.25 7.32591 11.25 8.33639H12.75ZM16 11.5864C14.2051 11.5864 12.75 10.1313 12.75 8.33639H11.25C11.25 10.9597 13.3766 13.0864 16 13.0864V11.5864ZM19.25 8.33639C19.25 10.1313 17.7949 11.5864 16 11.5864V13.0864C18.6234 13.0864 20.75 10.9597 20.75 8.33639H19.25ZM18.7496 6.60269C19.0665 7.10398 19.25 7.69761 19.25 8.33639H20.75C20.75 7.4056 20.4815 6.53523 20.0175 5.80117L18.7496 6.60269ZM17.6345 1.19504C16.9904 -0.0481675 15.2198 -0.0692619 14.5463 1.15825L15.8614 1.87975C15.9576 1.70439 16.2106 1.70741 16.3026 1.88501L17.6345 1.19504Z" fill="#828282"/>
</svg>
