<svg width="174" height="42" viewBox="0 0 174 42" fill="none" xmlns="http://www.w3.org/2000/svg">
<rect x="0.5" y="0.5" width="173" height="41" rx="20.5" stroke="#009FEB"/>
<path d="M28.35 19.248V13.417H29.676V27.493H28.35V20.37H25.222C24.304 22.138 22.842 23.719 20.734 24.977L19.918 23.974C23.182 22.019 24.814 19.282 25.069 16.086H20.564V14.947H26.446C26.446 16.443 26.225 17.888 25.715 19.248H28.35ZM31.529 13.009H32.855V28.258H31.529V13.009ZM40.9457 14.335V17.072C40.9457 19.86 42.7647 22.665 45.0257 23.685L44.1927 24.807C42.4587 23.957 40.9967 22.155 40.2657 19.979C39.5687 22.274 38.1067 24.178 36.3217 25.096L35.4717 23.957C37.7157 22.886 39.5687 19.962 39.5687 17.072V14.335H40.9457ZM46.6237 13.009H48.0177V28.292H46.6237V13.009ZM61.8033 17.055V14.624H54.3233V17.055H61.8033ZM63.1803 13.519V18.16H52.9633V13.519H63.1803ZM64.9653 20.557H58.7603V22.053H63.1973V25.487H54.2383V27H63.6563V28.088H52.8783V24.467H61.8203V23.107H52.8273V22.053H57.3663V20.557H51.1613V19.435H64.9653V20.557ZM73.475 15.61V23.345C76.178 23.345 77.963 23.243 80.02 22.852L80.19 24.008C77.98 24.416 76.144 24.518 73.254 24.518H72.081V14.454H79.017V15.61H73.475ZM82.485 13.009H83.879V28.292H82.485V19.69H78.116V18.534H82.485V13.009ZM89.9637 17.956V20.761H97.7497V17.956H89.9637ZM94.5537 25.164H100.776V26.303H86.9547V25.164H93.1427V21.883H88.5867V14.097H89.9637V16.817H97.7497V14.097H99.1097V21.883H94.5537V25.164ZM103.494 14.658H110.634C110.634 19.061 108.611 22.937 103.545 25.419L102.797 24.28C106.894 22.325 108.934 19.401 109.223 15.78H103.494V14.658ZM113.711 13.009H115.105V28.258H113.711V13.009Z" fill="#009FEB"/>
<path d="M144.267 13.2089C143.967 12.9232 143.493 12.9348 143.207 13.2347C142.921 13.5346 142.933 14.0093 143.233 14.295L149.484 20.2496H134.75C134.336 20.2496 134 20.5854 134 20.9996C134 21.4138 134.336 21.7496 134.75 21.7496H149.484L143.233 27.7043C142.933 27.99 142.921 28.4648 143.207 28.7647C143.493 29.0646 143.967 29.0762 144.267 28.7905L151.686 21.7238C151.855 21.5629 151.955 21.3576 151.986 21.1443C151.995 21.0975 152 21.0491 152 20.9996C152 20.9501 151.995 20.9016 151.986 20.8547C151.955 20.6415 151.855 20.4364 151.686 20.2756L144.267 13.2089Z" fill="#009FEB"/>
</svg>
