<svg width="246" height="50" viewBox="0 0 246 50" fill="none" xmlns="http://www.w3.org/2000/svg">
<rect width="246" height="50" rx="25" fill="#009FEB"/>
<path d="M43.78 15.54V24.74H42.14V15.54H43.78ZM31.06 20.18C31.06 21.72 32.36 22.82 34.1 22.82C35.86 22.82 37.14 21.72 37.14 20.18C37.14 18.62 35.86 17.52 34.1 17.52C32.36 17.52 31.06 18.62 31.06 20.18ZM38.74 20.18C38.74 22.54 36.78 24.14 34.1 24.14C31.42 24.14 29.48 22.54 29.48 20.18C29.48 17.8 31.42 16.18 34.1 16.18C36.78 16.18 38.74 17.8 38.74 20.18ZM33.82 31.94H44.38V33.24H32.2V28.74H42.16V26.92H32.16V25.62H43.78V29.96H33.82V31.94ZM57.0384 20.2H60.5784V15.56H62.2384V26.24H60.5784V21.54H57.0384V20.2ZM58.0384 24.28L57.2184 25.56C55.2184 24.84 53.6784 23.36 52.8984 21.52C52.1384 23.6 50.4784 25.28 48.3784 26.08L47.5184 24.78C50.1984 23.8 52.0384 21.38 52.0384 18.8V18.18H48.0384V16.86H57.6184V18.18H53.6784V18.8C53.6784 21.1 55.4384 23.36 58.0384 24.28ZM56.3184 32.2C59.0184 32.2 60.6584 31.44 60.6584 30.14C60.6584 28.84 59.0184 28.06 56.3184 28.06C53.6184 28.06 51.9784 28.84 51.9784 30.14C51.9784 31.44 53.6184 32.2 56.3184 32.2ZM56.3184 26.8C59.9984 26.8 62.2984 28.02 62.2984 30.14C62.2984 32.26 59.9984 33.48 56.3184 33.48C52.6384 33.48 50.3384 32.26 50.3384 30.14C50.3384 28.02 52.6384 26.8 56.3184 26.8ZM85.4898 21.04V22.36H73.1898V16.26H85.3698V17.58H74.8298V21.04H85.4898ZM79.2498 32.18C82.0498 32.18 83.7298 31.48 83.7298 30.22C83.7298 28.96 82.0698 28.26 79.2498 28.26C76.4298 28.26 74.7698 28.96 74.7698 30.22C74.7698 31.48 76.4298 32.18 79.2498 32.18ZM79.2498 26.98C83.0698 26.98 85.3898 28.14 85.3898 30.22C85.3898 32.3 83.0698 33.46 79.2498 33.46C75.4298 33.46 73.1098 32.3 73.1098 30.22C73.1098 28.14 75.4298 26.98 79.2498 26.98ZM71.1498 24.08H87.3898V25.44H71.1498V24.08ZM91.3483 29.46V28.12H103.828V33.32H102.188V29.46H91.3483ZM98.5083 25.4H105.808V26.74H89.5283V25.4H96.8483V23.52H91.6283V19.14H102.108V17.28H91.5883V16H103.728V20.36H93.2483V22.24H104.108V23.52H98.5083V25.4ZM113.207 28.12C114.847 28.12 116.027 26.96 116.027 25.36C116.027 23.74 114.847 22.58 113.207 22.58C111.587 22.58 110.407 23.74 110.407 25.36C110.407 26.96 111.587 28.12 113.207 28.12ZM113.207 21.22C115.767 21.22 117.587 22.94 117.587 25.36C117.587 27.8 115.767 29.48 113.207 29.48C110.687 29.48 108.867 27.8 108.867 25.36C108.867 22.94 110.687 21.22 113.207 21.22ZM114.007 15.76V18.42H118.427V19.74H107.847V18.42H112.367V15.76H114.007ZM124.707 22.92V24.3H121.767V33.48H120.127V15.56H121.767V22.92H124.707ZM128.625 23.48V27.82C131.685 27.82 133.865 27.7 136.445 27.24L136.605 28.6C133.905 29.08 131.625 29.18 128.385 29.18H127.005V22.16H133.385V18.54H126.965V17.2H134.985V23.48H128.625ZM139.465 15.52H141.105V33.5H139.465V23.78H136.045V22.44H139.465V15.52ZM145.704 17.46H153.904C153.904 22.56 151.564 27.18 145.764 30.08L144.864 28.8C149.444 26.5 151.904 23.06 152.284 18.82H145.704V17.46ZM161.424 22.82V24.18H158.544V33.48H156.904V15.54H158.544V22.82H161.424ZM164.202 17.48H172.602C172.602 22.66 170.222 27.22 164.262 30.14L163.382 28.8C168.202 26.5 170.602 23.06 170.942 18.8H164.202V17.48ZM176.222 15.54H177.862V33.48H176.222V15.54Z" fill="white"/>
<path d="M207.267 17.2089C206.967 16.9232 206.493 16.9348 206.207 17.2347C205.921 17.5346 205.933 18.0093 206.233 18.295L212.484 24.2496H197.75C197.336 24.2496 197 24.5854 197 24.9996C197 25.4138 197.336 25.7496 197.75 25.7496H212.484L206.233 31.7043C205.933 31.99 205.921 32.4648 206.207 32.7647C206.493 33.0646 206.967 33.0762 207.267 32.7905L214.686 25.7238C214.855 25.5629 214.955 25.3576 214.986 25.1443C214.995 25.0975 215 25.0491 215 24.9996C215 24.9501 214.995 24.9016 214.986 24.8547C214.955 24.6415 214.855 24.4364 214.686 24.2756L207.267 17.2089Z" fill="white"/>
</svg>
