<svg width="158" height="42" viewBox="0 0 158 42" fill="none" xmlns="http://www.w3.org/2000/svg">
<rect x="0.5" y="0.5" width="157" height="41" rx="20.5" stroke="#009FEB"/>
<path d="M28.707 20.183L27.976 21.271C26.327 20.659 25.018 19.401 24.338 17.837C23.709 19.622 22.349 21.016 20.564 21.696L19.833 20.591C22.145 19.758 23.624 17.684 23.624 15.355V13.791H25.018V15.474C25.018 17.531 26.514 19.435 28.707 20.183ZM26.888 27.153C29.132 27.153 30.509 26.524 30.509 25.47C30.509 24.399 29.132 23.77 26.888 23.77C24.627 23.77 23.25 24.399 23.25 25.47C23.25 26.524 24.627 27.153 26.888 27.153ZM26.888 22.682C29.982 22.682 31.903 23.685 31.903 25.47C31.903 27.238 29.982 28.241 26.888 28.241C23.777 28.241 21.856 27.238 21.856 25.47C21.856 23.685 23.777 22.682 26.888 22.682ZM31.733 16.953H33.994V18.109H31.733V22.257H30.339V13.026H31.733V16.953ZM44.3117 17.82V14.624H40.5207V17.82H44.3117ZM39.1267 17.82V14.624H36.8317V13.502H48.0177V14.624H45.7057V17.82H47.9497V18.942H36.8827V17.82H39.1267ZM46.2837 26.932V24.399H38.5997V26.932H46.2837ZM49.3267 21.509H43.1387V23.294H47.6437V28.054H37.2397V23.294H41.7447V21.509H35.5397V20.387H49.3267V21.509ZM57.8364 15.61V23.345C60.5394 23.345 62.3244 23.243 64.3814 22.852L64.5514 24.008C62.3414 24.416 60.5054 24.518 57.6154 24.518H56.4424V14.454H63.3784V15.61H57.8364ZM66.8464 13.009H68.2404V28.292H66.8464V19.69H62.4774V18.534H66.8464V13.009ZM74.325 17.956V20.761H82.111V17.956H74.325ZM78.915 25.164H85.137V26.303H71.316V25.164H77.504V21.883H72.948V14.097H74.325V16.817H82.111V14.097H83.471V21.883H78.915V25.164ZM87.8557 14.658H94.9957C94.9957 19.061 92.9727 22.937 87.9067 25.419L87.1587 24.28C91.2557 22.325 93.2957 19.401 93.5847 15.78H87.8557V14.658ZM98.0727 13.009H99.4667V28.258H98.0727V13.009Z" fill="#009FEB"/>
<path d="M128.267 13.2089C127.967 12.9232 127.493 12.9348 127.207 13.2347C126.921 13.5346 126.933 14.0093 127.233 14.295L133.484 20.2496H118.75C118.336 20.2496 118 20.5854 118 20.9996C118 21.4138 118.336 21.7496 118.75 21.7496H133.484L127.233 27.7043C126.933 27.99 126.921 28.4648 127.207 28.7647C127.493 29.0646 127.967 29.0762 128.267 28.7905L135.686 21.7238C135.855 21.5629 135.955 21.3576 135.986 21.1443C135.995 21.0975 136 21.0491 136 20.9996C136 20.9501 135.995 20.9016 135.986 20.8547C135.955 20.6415 135.855 20.4364 135.686 20.2756L128.267 13.2089Z" fill="#009FEB"/>
</svg>
