<svg width="104" height="104" viewBox="0 0 104 104" fill="none" xmlns="http://www.w3.org/2000/svg">
<circle cx="52" cy="52" r="52" fill="#F7F8FB"/>
<path d="M52.4621 35L46.9294 35C46.045 35 45.1797 35.2434 44.4273 35.7024L39.6199 38.635C39.2346 38.87 39 39.2864 39 39.7348V42.3174C39 44.4569 40.7497 46.1913 42.9079 46.1913H43.3421V61.7677C41.6105 61.9981 40.399 62.7226 39.7041 63.9638C39.3163 64.6564 39.1518 65.4102 39.0749 66.1034C38.9998 66.7766 39 67.4794 39 68.0999V68.1435C39 68.8566 39.5832 69.4348 40.3026 69.4348H47.2486H65.3421C69.0192 69.4348 72 66.4799 72 62.8348C72 60.4277 70.6993 58.323 68.7628 57.1715C68.1458 56.8048 67.3457 57.0031 66.9756 57.6147C66.6056 58.2263 66.8058 59.0195 67.4227 59.3864C68.6069 60.0904 69.3947 61.3721 69.3947 62.8348C69.3947 65.0535 67.5803 66.8522 65.3421 66.8522C64.7888 66.8522 64.4448 66.7089 64.2161 66.5495C63.9744 66.3808 63.7854 66.1392 63.6397 65.8481C63.493 65.5547 63.4083 65.246 63.3618 65.0001C63.3391 64.8801 63.3269 64.7828 63.3207 64.7201C63.3179 64.6931 63.3164 64.673 63.3155 64.6609L63.3148 64.601C63.3138 64.5426 63.3119 64.4596 63.3082 64.3544C63.3009 64.1444 63.2863 63.8452 63.2576 63.477C63.2004 62.7427 63.0859 61.7254 62.8562 60.5897C62.4062 58.3652 61.4739 55.4792 59.4667 53.4626C57.9939 51.9829 57.1934 49.8147 56.7794 47.6707C56.37 45.5511 56.3684 43.6225 56.3684 42.7478V38.8739C56.3684 36.7354 54.6213 35.0001 52.4621 35ZM62.0132 64.7C60.7113 64.743 60.7113 64.7442 60.7113 64.7442L60.7114 64.7484L60.7117 64.7549L60.7125 64.7721L60.7153 64.8214C60.7178 64.8606 60.7219 64.9126 60.7282 64.9757C60.7408 65.1013 60.7628 65.2732 60.8011 65.476C60.8704 65.8422 60.9978 66.3358 61.2367 66.8522H48.6442C48.8026 66.0023 49.2338 65.1199 50.405 64.5793C50.4243 64.5705 50.4432 64.5612 50.4618 64.5514C50.5524 64.5042 50.8116 64.4195 51.242 64.352C51.6414 64.2895 52.0829 64.2577 52.4605 64.2577C52.5536 64.2577 52.7587 64.2604 52.9517 64.2635L53.1976 64.2675L53.3003 64.2694H53.302C54.0214 64.2825 54.6151 63.715 54.6283 63.0019C54.6415 62.2889 54.069 61.7002 53.3498 61.6871L53.243 61.6852L52.9929 61.6811C52.806 61.6782 52.5783 61.6751 52.4605 61.6751C52.0531 61.6751 51.6003 61.7018 51.1579 61.7562V57.8179C51.1579 57.1047 50.5747 56.5266 49.8553 56.5266C49.1359 56.5266 48.5526 57.1047 48.5526 57.8179V62.6465C46.7032 63.8195 46.1664 65.5779 46.0108 66.8522H41.627C41.6357 66.6921 41.6476 66.5371 41.6643 66.3863C41.722 65.8684 41.8278 65.4925 41.982 65.2172C42.2079 64.8135 42.7346 64.2696 44.6447 64.2696C45.3641 64.2696 45.9474 63.6914 45.9474 62.9783V44.9C45.9474 44.1868 45.3641 43.6087 44.6447 43.6087H42.9079C42.1885 43.6087 41.6053 43.0306 41.6053 42.3174V40.4563L45.7928 37.9019C46.1353 37.6929 46.528 37.5826 46.9294 37.5826L52.4621 37.5826C53.1804 37.5826 53.7632 38.1598 53.7632 38.8739V42.7163C53.7409 43.1102 53.6034 43.4487 53.4069 43.6701C53.2313 43.8677 52.9541 44.0391 52.4605 44.0391C51.9624 44.0391 51.6743 43.8646 51.4954 43.6621C51.2958 43.436 51.1579 43.0851 51.1579 42.6617C51.1579 41.9486 50.5747 41.3704 49.8553 41.3704C49.1359 41.3704 48.5526 41.9486 48.5526 42.6617C48.5526 43.6158 48.8606 44.5993 49.5352 45.3631C50.2304 46.1506 51.2449 46.6217 52.4605 46.6217C53.0024 46.6217 53.5004 46.5282 53.9464 46.3566C54.0119 46.9281 54.1005 47.534 54.2206 48.1564C54.675 50.5084 55.6113 53.2663 57.6122 55.2766C59.0788 56.75 59.8833 59.0291 60.3017 61.0974C60.5062 62.1081 60.6089 63.0189 60.6601 63.6763C60.6857 64.0041 60.6983 64.2665 60.7045 64.444C60.7076 64.5328 60.7091 64.6001 60.7098 64.6437L60.7105 64.6907L60.7105 64.7C60.7105 64.7141 60.7108 64.7301 60.7113 64.7442L62.0132 64.7Z" fill="#212121"/>
</svg>
