<svg width="20" height="20" viewBox="0 0 20 20" fill="none" xmlns="http://www.w3.org/2000/svg">
<path d="M17.9984 3.24971C17.9984 1.45495 16.5435 0 14.7487 0H3.24971C1.45495 0 0 1.45495 0 3.24971V14.7487C0 16.5435 1.45495 17.9984 3.24971 17.9984H8.1644L8.5202 16.5754C8.5266 16.5497 8.5333 16.5241 8.5402 16.4985H3.24971C3.04586 16.4985 2.85015 16.4637 2.66822 16.3996L8.4745 10.7138L8.558 10.6431C8.8493 10.4307 9.2588 10.4543 9.5238 10.7139L11.6028 12.7501L12.6636 11.6893L10.5732 9.6423L10.4448 9.5257C9.5666 8.7877 8.2581 8.8265 7.4251 9.6421L1.60312 15.3423C1.53629 15.157 1.49987 14.9571 1.49987 14.7487V3.24971C1.49987 2.2833 2.2833 1.49987 3.24971 1.49987H14.7487C15.7151 1.49987 16.4985 2.2833 16.4985 3.24971V8.2317C16.9774 8.0412 17.492 7.9678 17.9984 8.0115V3.24971ZM14.503 5.75161C14.503 4.50791 13.4947 3.49969 12.251 3.49969C11.0073 3.49969 9.9991 4.50791 9.9991 5.75161C9.9991 6.99531 11.0073 8.0035 12.251 8.0035C13.4947 8.0035 14.503 6.99531 14.503 5.75161ZM11.499 5.75161C11.499 5.33626 11.8357 4.99956 12.251 4.99956C12.6664 4.99956 13.0031 5.33626 13.0031 5.75161C13.0031 6.16695 12.6664 6.50366 12.251 6.50366C11.8357 6.50366 11.499 6.16695 11.499 5.75161ZM16.0984 9.6686L10.1965 15.5705C9.8524 15.9146 9.6083 16.3458 9.4903 16.8179L9.0327 18.6484C8.8336 19.4445 9.5547 20.1656 10.3508 19.9666L12.1813 19.5089C12.6534 19.3909 13.0846 19.1468 13.4287 18.8027L19.3306 12.9008C20.2231 12.0082 20.2231 10.5611 19.3306 9.6686C18.4381 8.7761 16.991 8.7761 16.0984 9.6686Z" fill="#FCD11D"/>
</svg>
