<svg width="41" height="41" viewBox="0 0 41 41" fill="none" xmlns="http://www.w3.org/2000/svg">
<circle cx="20.2852" cy="20.2852" r="20" fill="#FCD11D"/>
<path d="M22.8104 10L19.9183 10C19.456 10 19.0037 10.1272 18.6104 10.3671L16.0975 11.9001C15.8961 12.023 15.7734 12.2406 15.7734 12.475V13.825C15.7734 14.9434 16.6881 15.85 17.8162 15.85H18.0432V23.9922C17.138 24.1126 16.5047 24.4914 16.1415 25.1402C15.9388 25.5022 15.8528 25.8962 15.8126 26.2586C15.7733 26.6105 15.7734 26.9779 15.7734 27.3022V27.325C15.7734 27.6978 16.0783 28 16.4544 28H20.0852H29.5432C31.4653 28 33.0234 26.4554 33.0234 24.55C33.0234 23.2917 32.3435 22.1916 31.3313 21.5897C31.0088 21.398 30.5905 21.5016 30.3971 21.8213C30.2036 22.141 30.3083 22.5556 30.6308 22.7474C31.2498 23.1154 31.6616 23.7854 31.6616 24.55C31.6616 25.7098 30.7131 26.65 29.5432 26.65C29.254 26.65 29.0741 26.5751 28.9546 26.4918C28.8282 26.4036 28.7294 26.2773 28.6533 26.1251C28.5766 25.9718 28.5323 25.8104 28.508 25.6819C28.4961 25.6191 28.4898 25.5683 28.4865 25.5355C28.4851 25.5214 28.4843 25.5109 28.4838 25.5046L28.4834 25.4733C28.4829 25.4427 28.4819 25.3994 28.48 25.3444C28.4762 25.2346 28.4686 25.0782 28.4536 24.8857C28.4236 24.5019 28.3638 23.9701 28.2437 23.3764C28.0085 22.2136 27.5211 20.7051 26.472 19.6509C25.7021 18.8774 25.2836 17.7441 25.0672 16.6233C24.8532 15.5153 24.8524 14.5072 24.8524 14.05V12.025C24.8524 10.9072 23.9391 10 22.8104 10ZM27.803 25.525C27.1225 25.5475 27.1225 25.5481 27.1225 25.5481L27.1226 25.5503L27.1227 25.5537L27.1231 25.5627L27.1246 25.5884C27.1259 25.609 27.128 25.6362 27.1313 25.6691C27.1379 25.7348 27.1494 25.8246 27.1695 25.9306C27.2057 26.1221 27.2723 26.3801 27.3972 26.65H20.8147C20.8975 26.2058 21.1229 25.7445 21.7351 25.4619C21.7452 25.4573 21.7551 25.4525 21.7648 25.4473C21.8122 25.4227 21.9477 25.3784 22.1726 25.3431C22.3815 25.3104 22.6122 25.2938 22.8096 25.2938C22.8583 25.2938 22.9655 25.2952 23.0664 25.2969L23.1949 25.2989L23.2486 25.2999H23.2495C23.6255 25.3068 23.9359 25.0101 23.9428 24.6373C23.9497 24.2646 23.6504 23.9569 23.2745 23.9501L23.2186 23.9491L23.0879 23.9469C22.9902 23.9454 22.8712 23.9438 22.8096 23.9438C22.5966 23.9438 22.3599 23.9577 22.1287 23.9862V21.9275C22.1287 21.5547 21.8238 21.2525 21.4478 21.2525C21.0717 21.2525 20.7669 21.5547 20.7669 21.9275V24.4516C19.8001 25.0647 19.5195 25.9839 19.4382 26.65H17.1466C17.1512 26.5663 17.1574 26.4853 17.1661 26.4065C17.1963 26.1357 17.2516 25.9393 17.3322 25.7954C17.4503 25.5843 17.7256 25.3 18.7241 25.3C19.1001 25.3 19.405 24.9978 19.405 24.625V15.175C19.405 14.8022 19.1001 14.5 18.7241 14.5H17.8162C17.4402 14.5 17.1353 14.1978 17.1353 13.825V12.8522L19.3242 11.5169C19.5033 11.4076 19.7085 11.35 19.9183 11.35L22.8104 11.35C23.1859 11.35 23.4905 11.6517 23.4905 12.025V14.0335C23.4789 14.2394 23.407 14.4164 23.3043 14.5321C23.2125 14.6354 23.0676 14.725 22.8096 14.725C22.5492 14.725 22.3986 14.6338 22.3051 14.5279C22.2008 14.4097 22.1287 14.2263 22.1287 14.005C22.1287 13.6322 21.8238 13.33 21.4478 13.33C21.0717 13.33 20.7669 13.6322 20.7669 14.005C20.7669 14.5037 20.9278 15.0178 21.2805 15.4171C21.6439 15.8287 22.1742 16.075 22.8096 16.075C23.0929 16.075 23.3532 16.0261 23.5863 15.9364C23.6206 16.2352 23.6669 16.5519 23.7297 16.8772C23.9672 18.1067 24.4566 19.5483 25.5025 20.5991C26.2692 21.3693 26.6897 22.5607 26.9084 23.6418C27.0153 24.1701 27.069 24.6462 27.0958 24.9899C27.1091 25.1612 27.1157 25.2984 27.119 25.3912C27.1206 25.4376 27.1214 25.4728 27.1218 25.4956L27.1221 25.5201L27.1221 25.525C27.1221 25.5324 27.1223 25.5408 27.1225 25.5481L27.803 25.525Z" fill="white"/>
<path d="M10 15C10.3314 15 10.6 15.2686 10.6 15.6V18.4H13.4C13.7314 18.4 14 18.6686 14 19C14 19.3314 13.7314 19.6 13.4 19.6H10.6V22.4C10.6 22.7314 10.3314 23 10 23C9.66864 23 9.4 22.7314 9.4 22.4V19.6H6.6C6.26863 19.6 6 19.3314 6 19C6 18.6686 6.26863 18.4 6.6 18.4H9.4V15.6C9.4 15.2686 9.66864 15 10 15Z" fill="white"/>
</svg>
