<svg width="40" height="41" viewBox="0 0 40 41" fill="none" xmlns="http://www.w3.org/2000/svg">
<circle cx="20" cy="20.2852" r="20" fill="#FCD11D"/>
<path d="M19.9976 12.0645C20.3773 12.0645 20.6912 12.3465 20.7409 12.7125L20.7478 12.8143L20.749 20.0645L28.0021 20.0645C28.4163 20.0645 28.7521 20.4003 28.7521 20.8145C28.7521 21.1942 28.4699 21.508 28.1039 21.5577L28.0021 21.5645L20.749 21.5645L20.751 28.8136C20.7511 29.2278 20.4154 29.5638 20.0012 29.5638C19.6215 29.5638 19.3076 29.2818 19.2579 28.9157L19.251 28.8139L19.249 21.5645L12 21.5645C11.5858 21.5645 11.25 21.2287 11.25 20.8145C11.25 20.4348 11.5321 20.121 11.8982 20.0713L12 20.0645L19.249 20.0645L19.2478 12.8146C19.2477 12.4004 19.5834 12.0645 19.9976 12.0645Z" fill="white"/>
</svg>
