<svg width="40" height="40" viewBox="0 0 40 40" fill="none" xmlns="http://www.w3.org/2000/svg">
<circle cx="20" cy="20" r="19.5" fill="#009FEB" fill-opacity="0.3" stroke="#009FEB"/>
<path d="M26.2084 26.2073C26.122 26.2937 25.9877 26.3038 25.8908 26.2374L25.8427 26.1955L20.7271 21.0827L20.3736 20.7294L20.0201 21.0828L14.8943 26.2086C14.7967 26.3063 14.6384 26.3063 14.5407 26.2086C14.4546 26.1225 14.4443 25.9882 14.5106 25.8912L14.5525 25.8433L19.6666 20.7293L20.0202 20.3756L19.6665 20.0221L14.5392 14.8965L14.5392 14.8965C14.4415 14.7988 14.4416 14.6406 14.539 14.5431C14.6254 14.4567 14.7597 14.4465 14.8566 14.5129L14.9046 14.5548L20.0202 19.6687L20.3737 20.0221L20.7272 19.6686L25.8559 14.5399C25.9536 14.4423 26.1119 14.4423 26.2095 14.5399C26.2956 14.626 26.3059 14.7603 26.2396 14.8573L26.1977 14.9052L21.0808 20.0222L20.7271 20.3758L21.0809 20.7294L26.2082 25.8538C26.3059 25.9515 26.3058 26.1098 26.2084 26.2073Z" fill="#212121" stroke="#009FEB"/>
</svg>
