<svg width="40" height="40" viewBox="0 0 40 40" fill="none" xmlns="http://www.w3.org/2000/svg">
<circle cx="20" cy="20" r="19.25" transform="rotate(-180 20 20)" fill="white" stroke="#FCD11D" stroke-width="1.5"/>
<path d="M23.3982 27.916L23.3982 27.916C23.5339 28.0496 23.5339 28.2629 23.3982 28.3965C23.2581 28.5345 23.0277 28.5345 22.8875 28.3965C22.8875 28.3965 22.8875 28.3965 22.8875 28.3965L14.6018 20.2403C14.4661 20.1066 14.4661 19.8934 14.6018 19.7597L22.8875 11.6035L22.5368 11.2471L22.8875 11.6035C23.0277 11.4655 23.2581 11.4655 23.3982 11.6035L23.7476 11.2485L23.3982 11.6035C23.5339 11.7371 23.5339 11.9504 23.3982 12.084L15.7186 19.6437L15.3566 20L15.7186 20.3563L23.3982 27.916Z" fill="#212121" stroke="#FCD11D"/>
</svg>
