<svg width="40" height="40" viewBox="0 0 40 40" fill="none" xmlns="http://www.w3.org/2000/svg">
<circle cx="20" cy="20" r="19.25" fill="white" stroke="#FCD11D" stroke-width="1.5"/>
<path d="M16.6018 12.084L16.6018 12.084C16.4661 11.9504 16.4661 11.7371 16.6018 11.6035C16.7419 11.4655 16.9723 11.4655 17.1125 11.6035C17.1125 11.6035 17.1125 11.6035 17.1125 11.6035L25.3982 19.7597C25.5339 19.8934 25.5339 20.1066 25.3982 20.2403L17.1125 28.3965L17.4632 28.7529L17.1125 28.3965C16.9723 28.5345 16.7419 28.5345 16.6018 28.3965L16.2524 28.7515L16.6018 28.3965C16.4661 28.2629 16.4661 28.0496 16.6018 27.916L24.2814 20.3563L24.6434 20L24.2814 19.6437L16.6018 12.084Z" fill="#212121" stroke="#FCD11D"/>
</svg>
