<svg width="14" height="14" viewBox="0 0 14 14" fill="none" xmlns="http://www.w3.org/2000/svg">
<path d="M12.6346 0.698732C11.7029 -0.232948 10.1923 -0.232908 9.26073 0.698832L1.29402 8.66647C1.02313 8.9374 0.832733 9.27813 0.743999 9.6508L0.0136059 12.7185C-0.0266075 12.8874 0.0236792 13.0651 0.146453 13.1878C0.269233 13.3106 0.446912 13.3609 0.615819 13.3207L3.68332 12.5903C4.05612 12.5015 4.39697 12.3111 4.66794 12.0401L12.6347 4.07241C13.5662 3.14075 13.5662 1.63033 12.6346 0.698732ZM9.96787 1.40589C10.5089 0.864726 11.3863 0.864699 11.9275 1.40584C12.4685 1.94693 12.4686 2.82421 11.9275 3.36534L11.3333 3.95964L9.37373 2.00008L9.96787 1.40589ZM8.66667 2.70723L10.6263 4.66679L3.96079 11.333C3.82069 11.4731 3.64445 11.5716 3.4517 11.6175L1.17461 12.1597L1.71681 9.88247C1.76268 9.68973 1.86112 9.5136 2.00117 9.37353L8.66667 2.70723Z" fill="white"/>
</svg>
